<svg width="35" height="35" viewBox="0 0 35 35" fill="none" xmlns="http://www.w3.org/2000/svg">
<path d="M15.2444 0.155518C16.8032 0.155518 18.362 0.155518 19.9571 0.213386C20.1855 0.334769 20.3731 0.425449 20.5703 0.457595C22.5253 0.776302 24.3802 1.3999 26.0955 2.38248C30.795 5.07445 33.7306 9.06659 34.8496 14.3813C34.8806 14.5284 35.0504 14.6462 35.1555 14.7777C35.1555 16.6477 35.1555 18.5176 35.0986 20.4239C34.9893 20.575 34.9143 20.6847 34.8879 20.8051C33.2405 28.3272 28.6809 33.0107 21.2074 34.8659C21.0708 34.8998 20.9647 35.0563 20.8444 35.1555C20.5268 35.1555 20.2092 35.1555 19.8246 35.0826C19.7575 31.0314 19.7575 27.0531 19.7575 23.0173C21.4051 23.0173 22.9505 23.0173 24.5084 23.0173C24.8331 21.2398 25.1479 19.5161 25.4753 17.7239C23.5675 17.7239 21.6886 17.7239 19.7989 17.7239C19.7989 16.7582 19.7225 15.8495 19.8145 14.9583C20.0214 12.9541 20.9632 12.0887 22.9934 11.9776C23.9078 11.9275 24.8273 11.9691 25.7592 11.9691C25.7592 10.3233 25.7592 8.77321 25.7592 7.18322C25.5399 7.12182 25.3219 7.01455 25.1 7.00592C23.3746 6.93877 21.6363 6.73467 19.9253 6.86933C16.4492 7.14293 14.1556 9.36383 13.6852 12.7983C13.4653 14.4034 13.4458 16.036 13.3303 17.7314C12.21 17.7314 11.032 17.7314 9.83521 17.7314C9.83521 19.5265 9.83521 21.2499 9.83521 23.0506C11.0374 23.0506 12.2148 23.0506 13.3757 23.0506C13.3757 26.9698 13.3757 30.8114 13.3757 34.8587C11.8915 34.2102 10.4669 33.7261 9.17866 33C4.45102 30.335 1.55429 26.2993 0.450213 20.9789C0.416604 20.817 0.256596 20.6813 0.155518 20.5333C0.155518 18.6634 0.155518 16.7935 0.208919 14.8967C0.32182 14.7633 0.410579 14.6636 0.436643 14.5494C2.2197 6.7438 7.03087 2.04 14.8739 0.428718C15.0104 0.400689 15.1215 0.249329 15.2444 0.155518Z" fill="#FEFEFE"/>
</svg>
