<svg width="39" height="39" viewBox="0 0 39 39" fill="none" xmlns="http://www.w3.org/2000/svg">
<g clip-path="url(#clip0_31_345)">
<path d="M39.1733 10.0533C39.1733 16.4703 39.1733 22.8873 39.1114 29.3387C38.9892 29.4971 38.8919 29.616 38.8739 29.7458C38.2029 34.586 34.8267 38.1659 29.681 38.8614C29.5403 38.8804 29.4221 39.0656 29.2933 39.1733C22.8764 39.1733 16.4594 39.1733 10.0069 39.1111C9.84658 38.9889 9.72692 38.8925 9.59633 38.8742C4.71846 38.1922 1.17319 34.7851 0.484748 29.6771C0.465963 29.5377 0.280877 29.4208 0.17334 29.2933C0.17334 22.8764 0.17334 16.4594 0.235559 10.0069C0.357755 9.84662 0.454217 9.72698 0.47244 9.59643C1.14996 4.74259 4.53796 1.17837 9.66599 0.485267C9.80659 0.466264 9.92473 0.281048 10.0533 0.17334C16.4703 0.17334 22.8873 0.17334 29.3398 0.235564C29.5001 0.357775 29.6198 0.454246 29.7504 0.472483C34.6135 1.15158 38.1713 4.54807 38.8619 9.66957C38.8807 9.80896 39.0658 9.92592 39.1733 10.0533ZM3.78286 12.8922C3.84217 18.2296 3.80325 23.5706 3.99669 28.9031C4.11758 32.2355 6.16089 34.4902 9.40067 35.1991C10.6833 35.4798 12.0307 35.5737 13.3478 35.5682C18.5411 35.5464 23.738 35.5491 28.926 35.3484C32.2489 35.22 34.5045 33.1664 35.2037 29.9236C35.4805 28.6397 35.5755 27.293 35.5696 25.9757C35.5465 20.7823 35.5471 15.5855 35.3462 10.3974C35.2191 7.11496 33.1818 4.86261 29.9846 4.15582C28.7027 3.87244 27.3551 3.77542 26.0383 3.78097C20.8161 3.803 15.5904 3.80172 10.3736 4.00332C7.10319 4.1297 4.86192 6.19025 4.14608 9.38278C3.90253 10.4689 3.90143 11.6094 3.78286 12.8922Z" fill="#FDFDFD"/>
<path d="M23.0249 29.1107C16.355 31.4442 9.51422 26.3925 9.66694 19.4034C9.77043 14.6674 13.4831 10.1977 18.6319 9.71765C24.5234 9.16835 28.8355 13.3461 29.5957 18.1876C30.323 22.8199 27.7045 27.2204 23.0249 29.1107ZM25.3387 16.5451C25.2191 16.3492 25.11 16.146 24.9783 15.9586C23.0816 13.2611 19.546 12.412 16.6223 13.949C13.7784 15.444 12.459 18.9226 13.5978 21.9228C14.7817 25.0416 18.063 26.8074 21.2628 25.9657C25.3251 24.897 27.3658 20.4492 25.3387 16.5451Z" fill="#FCFCFC"/>
<path d="M28.5902 7.41778C29.7386 6.53708 31.2053 6.9422 31.8438 7.71592C32.5629 8.58734 32.604 9.78232 31.9228 10.6678C31.0976 11.7404 29.5752 11.9056 28.5473 11.0339C27.4533 10.1062 27.4505 8.63151 28.5902 7.41778Z" fill="#FBFBFB"/>
</g>
<defs>
<clipPath id="clip0_31_345">
<rect width="39" height="39" fill="white"/>
</clipPath>
</defs>
</svg>
