<svg width="39" height="39" viewBox="0 0 39 39" fill="none" xmlns="http://www.w3.org/2000/svg">
<path d="M9.97217 -0.059082C10.2374 0.281133 10.41 0.628153 10.6074 0.960478C12.0914 3.45928 13.5696 5.96161 15.0726 8.44892C15.7013 9.48941 15.6752 10.5016 14.9273 11.4174C14.4231 12.0348 13.7823 12.545 13.1767 13.0736C12.6996 13.4899 12.1605 13.8358 11.6888 14.2575C10.7249 15.1191 10.6835 15.5259 11.3095 16.6428C14.04 21.5148 17.781 25.3575 22.731 28.01C23.5805 28.4652 24.1912 28.3691 24.7747 27.6904C25.5259 26.8164 26.2188 25.8886 27.011 25.0544C28.4843 23.5032 29.4484 23.3933 31.2829 24.4477C33.0777 25.4792 34.8609 26.5315 36.673 27.5315C37.6458 28.0683 38.5275 28.6732 39.1216 29.6281C39.1733 30.5668 39.1733 31.5528 39.1177 32.5722C38.4692 33.6391 38.0042 34.778 37.257 35.6841C35.7086 37.562 33.4628 38.1515 31.1798 38.5959C30.9421 38.6422 30.7304 38.8227 30.5067 38.9409C29.1742 38.9409 27.8416 38.9409 26.471 38.8782C25.0166 38.3652 23.5448 38.0406 22.1939 37.4429C16.6052 34.9704 11.7763 31.4331 7.7833 26.7926C4.30514 22.7503 1.49718 18.3436 0.462769 12.998C0.444959 12.906 0.273241 12.8437 0.17334 12.7676C0.17334 10.9729 0.17334 9.17812 0.234942 7.34265C0.342571 7.23119 0.413872 7.16608 0.430991 7.08895C1.20209 3.61453 3.01277 1.08827 6.66085 0.220299C6.7131 0.207866 6.72779 0.0375484 6.76001 -0.059082C7.80367 -0.059082 8.84734 -0.059082 9.97217 -0.059082Z" fill="#FEFEFE"/>
</svg>
