<svg width="373" height="377" viewBox="0 0 373 377" fill="none" xmlns="http://www.w3.org/2000/svg">
<path d="M59.8294 170.799C59.3341 170.987 58.8388 171.175 57.8411 171.094C55.6046 171.278 53.8705 171.731 52.1363 172.185C51.7059 172.236 51.2755 172.288 50.379 172.098C49.3958 171.989 48.8787 172.124 48.3617 172.259C29.5855 172.572 17.832 162.002 10.2111 147.39C7.86486 142.892 6.42622 137.92 4.83691 132.634C5.74345 131.286 6.38509 130.469 6.84301 129.984C6.98655 130.959 7.31381 131.604 7.57538 132.553C8.07869 133.461 8.64769 134.062 9.21671 134.664C9.8729 133.906 10.5291 133.149 11.2116 132.435C11.238 132.479 11.1733 132.397 11.5888 132.43C19.1729 131.291 26.3418 129.993 32.7225 135.148C33.2185 135.549 34.2593 135.275 35.0351 135.322C35.0233 135.329 35.0274 135.303 35.0802 135.631C36.0618 136.373 36.9906 136.786 37.9021 137.216C37.8848 137.233 37.8914 137.185 37.942 137.554C40.0632 138.506 42.1339 139.088 44.5324 139.622C46.6553 139.563 48.4504 139.552 50.4217 139.709C51.0749 139.911 51.5521 139.946 52.383 140.002C54.1225 139.096 55.5083 138.168 56.9608 137.124C57.0274 137.008 57.2943 137.038 57.6271 137.08C58.5586 136.612 59.1573 136.103 59.9064 135.441C60.0569 135.289 60.4821 135.241 60.8059 135.249C61.5533 134.854 61.9768 134.451 62.4128 134.11C62.4253 134.172 62.3119 134.115 62.5657 134.127C63.06 133.916 63.3006 133.694 63.6293 133.335C63.7175 133.199 64.0416 133.212 64.446 133.273C72.7787 130.546 80.4838 130.725 87.8036 135.412C87.1486 138.524 86.4208 141.982 85.6808 145.612C85.5553 145.873 85.3515 145.956 85.3473 146.049C85.3381 146.254 85.4289 146.464 85.4253 147.006C83.4685 150.283 81.5654 153.227 79.6623 156.17C79.6623 156.17 79.7079 156.228 79.3456 156.253C77.6228 158.138 76.2624 159.998 74.9019 161.857C74.9019 161.857 74.9459 161.927 74.5538 161.92C71.632 163.895 67.0794 163.368 66.657 167.963C66.657 167.963 66.3867 167.79 66.162 167.776C63.9013 168.774 61.8653 169.787 59.8294 170.799Z" fill="#FFD8B0" fill-opacity="0.91"/>
<path d="M7.02688 129.652C6.38524 130.469 5.7436 131.286 4.87494 132.267C3.33408 125.466 2.02026 118.499 0.787202 110.73C0.764672 109.159 0.661393 108.389 0.558098 107.619C0.552324 106.02 0.54655 104.42 0.670706 102.437C0.800651 102.052 0.794427 102.019 0.794427 102.019C1.74863 101.863 2.70283 101.707 4.39791 101.715C5.6596 101.777 6.18041 101.675 6.7012 101.573C31.9448 101.574 57.1884 101.574 83.2078 101.693C84.2134 101.733 84.4433 101.653 84.6732 101.574C86.1817 101.57 87.6903 101.567 89.9197 101.696C90.8689 101.741 91.0972 101.653 91.3254 101.566C92.013 101.579 92.7006 101.592 93.6515 102.064C93.9598 102.702 94.0049 102.881 94.05 103.06C94.05 107.181 94.05 111.302 94.05 115.747C100.095 115.302 105.713 116.786 107.875 124.114C109.892 130.953 107.398 138.778 100.909 143.378C97.3607 145.892 93.292 148.244 89.1263 149.159C84.7617 150.118 82.1002 152.167 79.9487 156.018C81.5655 153.227 83.4686 150.283 85.7695 146.908C94.3087 144.621 101.819 141.512 104.392 132.76C105.301 129.667 104.794 125.329 103.179 122.598C101.987 120.582 98.0032 119.893 95.133 119.441C94.4781 119.338 93.01 122.557 92.3903 124.405C90.052 131.381 87.9092 138.423 85.6932 145.439C86.421 141.982 87.1488 138.524 87.8038 135.412C80.484 130.725 72.7789 130.546 64.6761 133.005C71.8778 128.849 79.2517 128.692 87.6993 133.731C88.8952 123.557 89.987 114.269 90.8243 104.677C89.8031 104.241 89.0364 103.997 88.2696 103.996C61.8893 103.976 35.5089 103.968 9.12864 104.008C7.92638 104.01 6.72476 104.461 5.18599 104.786C4.26381 105.67 3.2288 106.447 3.18545 107.276C3.09079 109.087 3.38883 110.944 3.72442 112.746C4.7759 118.391 5.91917 124.018 7.02688 129.652Z" fill="#FFD8B0" fill-opacity="0.91"/>
<path d="M66.9829 167.909C67.0796 163.368 71.6322 163.895 74.5164 161.903C72.3501 163.881 69.8294 165.867 66.9829 167.909Z" fill="#FFD8B0" fill-opacity="0.91"/>
<path d="M75.188 161.732C76.2626 159.998 77.623 158.138 79.3119 156.239C78.2515 158.002 76.8627 159.805 75.188 161.732Z" fill="#FFD8B0" fill-opacity="0.91"/>
<path d="M52.5015 172.256C53.8706 171.731 55.6047 171.278 57.5721 171.053C56.1591 171.63 54.5128 171.978 52.5015 172.256Z" fill="#FFD8B0" fill-opacity="0.91"/>
<path d="M60.1865 170.805C61.8654 169.787 63.9014 168.774 66.3054 167.848C64.6301 168.893 62.5869 169.852 60.1865 170.805Z" fill="#FFD8B0" fill-opacity="0.91"/>
<path d="M0.437012 107.862C0.661378 108.389 0.764721 109.158 0.775362 110.311C0.560446 109.832 0.438231 108.969 0.437012 107.862Z" fill="#FFD8B0" fill-opacity="0.91"/>
<path d="M94.1943 102.921C94.0049 102.881 93.9597 102.702 93.9429 102.248C94.1248 101.882 94.2785 101.791 94.4322 101.7C94.401 102.061 94.3698 102.421 94.1943 102.921Z" fill="#FFD8B0" fill-opacity="0.91"/>
<path d="M6.50887 101.401C6.1805 101.675 5.65969 101.777 4.7666 101.715C5.03503 101.444 5.67575 101.337 6.50887 101.401Z" fill="#FFD8B0" fill-opacity="0.91"/>
<path d="M217.629 270.259C212.437 263.983 210.634 256.637 210.65 248.665C210.684 231.882 210.736 215.098 210.585 198.316C210.557 195.262 211.711 193.778 214.372 192.677C219.187 190.684 223.742 187.979 228.663 186.348C241.716 182.022 243.389 172.617 242.928 159.194C242.89 158.102 242.556 157.018 242.339 155.935C240.543 146.975 235.2 143.672 226.812 147.409C219.485 150.673 212.798 155.344 205.591 158.916C200.695 161.341 195.528 163.577 190.229 164.732C184.88 165.898 182.319 163.383 181.558 157.92C181.231 155.577 181.097 153.195 181.049 150.827C180.9 143.508 180.26 142.617 173.254 140.537C172.497 140.312 171.727 140.124 170.989 139.849C170.727 139.752 170.543 139.446 169.773 138.709C171.27 137.405 172.778 136.22 174.123 134.873C174.923 134.072 175.467 133.014 176.127 132.072C175.057 131.571 174.024 130.947 172.905 130.607C172.019 130.338 170.946 130.629 170.099 130.302C167.567 129.323 165.766 128.117 166.91 124.653C168.116 121.003 168.541 117.095 169.337 113.154C164.213 112.39 159.914 111.749 155.056 111.025C156.468 107.031 157.41 103.566 158.881 100.342C164.755 87.465 166.516 73.8221 167.365 59.8612C167.961 50.0514 170.153 40.4401 175.376 31.8669C178.293 27.0796 181.801 21.6518 187.718 21.9062C193.631 22.1604 197.596 27.1844 200.262 32.465C205.62 43.0762 206.181 54.6302 206.576 66.192C206.716 70.3039 206.637 74.4291 206.93 78.5289C207.911 92.2579 217.112 101.278 230.879 101.875C236.725 102.129 242.59 101.879 248.446 101.916C264.352 102.018 271.141 107.571 273.521 123.125C275.098 133.431 275.926 143.85 277.339 154.184C277.827 157.753 278.813 161.311 280.019 164.715C283.172 173.608 289.217 178.76 299.03 179.175C303.104 179.348 307.183 180.155 311.171 181.064C312.25 181.31 313.003 182.983 314 184.39C314.061 205.417 314.028 226.053 313.884 247.504C313.851 257.446 310.721 265.14 303.6 271.048C303.6 271.048 303.298 271.068 302.872 271.246C297.34 272.616 292.289 274.392 287.118 274.861C279.825 275.522 272.444 275.215 265.1 275.322C264.67 275.3 264.24 275.277 263.068 275.225C253.119 275.275 243.912 275.355 234.705 275.435C233.067 275.361 231.43 275.287 229.067 275.099C225.098 273.703 221.854 272.421 218.61 271.138C218.61 271.138 218.576 271.235 218.531 270.967C218.196 270.542 217.907 270.385 217.618 270.228C217.618 270.228 217.611 270.277 217.629 270.259Z" fill="#FFD8B0" fill-opacity="0.91"/>
<path d="M172.871 341.604C167.19 348.603 161.522 355.564 153.253 359.847C137.599 367.956 119.476 363.57 109.82 348.974C101.622 336.58 96.1664 322.849 92.4076 308.618C85.9114 284.023 80.1742 259.227 74.169 234.503C71.9572 225.397 72.0245 225.359 62.7771 224.426C54.1249 223.553 45.4406 222.941 36.8205 221.827C29.6209 220.897 23.6137 217.311 19.2362 211.543C14.7494 205.63 10.8194 199.298 6.39923 193.332C1.86258 187.209 6.51243 181.221 5.23117 173.905C16.9268 183.81 22.9227 198.054 37.2286 202.101C45.8357 204.536 54.9084 205.326 65.2491 207.109C57.9703 197.637 46.8627 193.491 43.9844 182.051C46.5296 183.946 48.9791 185.988 51.6376 187.708C59.9984 193.117 68.2822 198.673 76.8974 203.65C83.3837 207.398 87.885 212.19 90.249 219.461C98.5156 244.888 107.962 269.879 120.015 293.786C124.495 302.673 129.624 311.235 134.53 319.904C135.348 321.35 136.538 322.585 137.703 324.11C141.241 309.305 144.37 294.869 148.175 280.613C153.113 262.116 159.245 244.024 169.062 227.407C174.408 218.359 181.349 211.4 190.966 206.224C190.235 231.694 189.526 256.392 188.902 281.406C188.895 282.302 188.802 282.881 188.557 284.106C186.62 296.742 184.833 308.733 183.045 320.724C183.045 320.724 182.978 320.855 182.755 321.197C179.811 327.452 177.09 333.366 174.37 339.28C174.37 339.28 174.374 339.365 174.13 339.495C173.793 339.921 173.701 340.217 173.609 340.513C173.609 340.513 173.738 340.559 173.46 340.612C173.072 340.979 172.962 341.291 172.853 341.604C172.853 341.604 172.881 341.617 172.871 341.604Z" fill="#FFD8B0" fill-opacity="0.91"/>
<path d="M324.647 332.604C334.441 331.585 334.45 331.585 334.444 322.092C334.418 279.962 334.385 237.832 334.354 195.702C334.353 194.032 334.354 192.362 334.354 189.939C345.735 197.155 353.52 206.469 359.269 217.56C369.748 237.778 372.726 259.624 372.687 282.019C372.653 302.39 370.667 322.484 363.159 341.704C355.723 360.741 342.201 369.927 321.711 368.985C286.767 367.378 251.766 366.47 217.091 361.101C214.954 360.77 212.231 362.177 210.214 363.457C198.531 370.868 186.227 376.395 172.111 376.583C161.142 376.73 150.767 374.642 140.99 367.239C150.929 365.772 158.733 361.59 165.407 355.272C166.785 353.968 168.45 352.787 169.352 351.192C172.84 345.025 178.669 343.142 185.04 342.065C195.026 340.377 205.012 338.679 215.349 336.821C216.122 336.655 216.545 336.653 217.623 336.597C220.252 336.248 222.226 335.953 224.2 335.658C224.619 335.678 225.037 335.697 226.171 335.706C242.796 335.043 258.707 334.392 274.617 333.741C275.038 333.798 275.46 333.856 276.507 333.949C277.561 333.887 277.989 333.791 278.417 333.694C283.499 333.704 288.581 333.714 294.526 333.746C304.618 333.35 313.846 332.932 323.075 332.514C323.493 332.549 323.912 332.584 324.647 332.604Z" fill="#FFD8B0" fill-opacity="0.91"/>
<path d="M314.791 178.424C308.982 177.465 303.593 176.088 298.127 175.633C289.818 174.941 284.728 170.308 283.012 162.808C280.872 153.458 279.961 143.828 278.494 134.324C277.578 128.39 276.964 122.382 275.595 116.552C273.196 106.337 266.27 100.43 256.06 99.167C249.036 98.2978 241.855 98.6156 234.743 98.554C217.832 98.4076 210.492 90.7498 209.986 73.7184C209.677 63.3256 208.658 52.9173 207.293 42.604C206.211 34.4308 202.486 27.27 195.971 21.6979C200.712 21.5535 203.903 23.2443 206.039 28.4451C208.964 35.5659 211.576 42.8713 213.588 50.2965C216.139 59.7127 218.994 68.7897 226.354 75.7456C230.955 80.0945 236.325 82.328 242.658 82.2263C250.888 82.094 259.152 82.369 267.342 81.7263C281.14 80.6437 290.948 86.8947 296.492 98.6433C301.095 108.398 304.547 118.931 306.845 129.482C310.508 146.305 315.39 162.438 325.017 176.885C325.932 178.258 326.414 179.919 326.993 181.752C326.487 182.011 326.084 181.965 325.221 181.605C323.916 181.141 323.072 180.992 322.227 180.843C322.227 180.843 322.173 180.936 322.063 180.598C320.427 179.865 318.902 179.472 317.376 179.079C316.643 178.859 315.91 178.639 314.791 178.424Z" fill="#FFD8B0" fill-opacity="0.91"/>
<path d="M275.849 15.1668C299.933 30.9443 314.48 53.4804 324.307 79.5398C333.797 104.704 337.002 131.065 339.048 157.637C339.837 167.891 340.555 178.15 341.378 189.402C339.911 188.176 338.991 187.534 338.221 186.745C322.9 171.029 314.379 152.081 310.672 130.564C308.444 117.628 305.273 104.838 297.721 93.6641C290.845 83.4895 281.708 77.7282 269.044 78.3368C260.982 78.7242 252.908 78.8801 244.838 79.097C236.015 79.3343 228.929 75.7749 224.564 68.2124C221.601 63.0807 219.563 57.3568 217.592 51.7295C215.927 46.9749 215.322 41.8434 213.597 37.1161C209.647 26.2902 205.514 15.359 189.526 17.9623C195.557 8.61578 203.817 4.59609 212.972 2.28585C231.412 -2.36751 248.764 1.90715 265.561 9.52022C269.01 11.0835 272.234 13.144 275.849 15.1668Z" fill="#FFD8B0" fill-opacity="0.91"/>
</svg>
