<svg width="334" height="112" viewBox="0 0 334 112" fill="none" xmlns="http://www.w3.org/2000/svg">
<path d="M278.907 62.849C277.552 67.767 275.693 72.3053 275.272 76.9735C274.717 83.1121 279.116 86.3517 284.277 88.4774C289.584 90.6628 294.661 90.107 297.806 85.9132C300.716 82.0335 302.887 77.4844 304.774 72.9753C309.452 61.7982 313.782 50.4755 318.355 38.952C323.646 41.0688 328.601 43.0512 333.995 45.2091C327.922 59.9705 322.754 74.8942 315.764 88.9095C307.372 105.738 290.484 109.392 273.271 98.8986C268.319 95.8803 264.392 91.1831 259.32 86.6533C247.997 90.0884 236.605 86.916 226.567 78.9202C217.235 71.4866 214.763 60.5204 219.597 47.426C224.721 33.5432 230.54 19.9165 236.194 5.83179C241.332 7.90255 246.266 9.89182 251.568 12.0287C246.672 24.2099 241.872 36.11 237.116 48.0279C236.173 50.3897 235.201 52.7694 234.586 55.2268C232.544 63.3909 235.038 68.5169 242.335 71.5624C249.873 74.7082 255.812 73.0708 259.615 65.3491C264.105 56.233 267.55 46.601 271.425 37.1832C273.405 32.3704 275.334 27.5368 277.402 22.4284C282.613 24.5162 287.424 26.444 292.749 28.5773C288.098 40.0957 283.57 51.3114 278.907 62.849Z" fill="#4D4DFF"/>
<path d="M201.035 51.4039C189.363 79.609 152.349 80.8925 135.814 62.8914C125.549 51.7171 123.052 35.1704 129.987 20.953C137.063 6.44691 149.66 0.267785 165.209 0.484117C193.101 0.872158 209.867 24.7617 201.035 51.4039ZM157.205 15.9918C146.346 21.1081 141.768 29.3285 143.27 41.4471C144.321 49.9248 148.916 55.9071 156.908 58.9309C164.815 61.9228 172.312 60.8255 178.869 55.3734C186.666 48.89 189.103 36.1034 184.499 26.9679C179.464 16.9787 169.949 12.9607 157.205 15.9918Z" fill="#4D4DFF"/>
<path d="M41.2383 34.8036C41.4255 36.9798 41.5575 38.7595 41.6393 39.8621C36.1737 41.5461 30.7702 42.4387 26.1166 44.8057C16.4652 49.715 13.1657 56.5745 20.5352 68.6184C28.9783 64.4229 37.473 60.2019 46.4437 55.7442C48.4177 59.8219 50.2675 63.643 52.3513 67.9474C43.7614 72.2975 35.5177 76.4724 26.7134 80.9311C30.5261 88.5885 34.2856 96.1389 38.257 104.115C33.2729 106.606 28.5202 108.982 23.4282 111.527C17.3147 99.2662 11.8261 87.1104 5.34467 75.5093C-6.52818 54.2581 3.92032 37.8744 22.7281 30.4617C28.1483 28.3255 34.0989 27.535 40.2853 26.0094C40.6831 29.7306 40.9331 32.0688 41.2383 34.8036Z" fill="#4D4DFF"/>
<path d="M87.8095 63.9171C88.2742 65.7197 88.6629 67.1526 89.2147 69.186C94.9448 67.7815 100.546 66.4126 106.145 65.0352C111.78 63.6491 117.413 62.2544 123.375 60.7824C124.53 65.237 125.602 69.3768 126.814 74.0536C110.002 78.2778 93.5268 82.4174 76.4704 86.703C70.6615 63.423 64.9208 40.4162 59.0471 16.8766C64.3869 15.5599 69.5182 14.2947 75.136 12.9094C79.3713 29.9335 83.5524 46.7404 87.8095 63.9171Z" fill="#4D4DFF"/>
</svg>
