<svg width="562" height="713" viewBox="0 0 562 713" fill="none" xmlns="http://www.w3.org/2000/svg">
<g filter="url(#filter0_d_56_3057)">
<path d="M236.83 356.799C236.334 356.987 235.839 357.175 234.841 357.094C232.605 357.278 230.871 357.731 229.137 358.185C228.706 358.236 228.276 358.288 227.379 358.097C226.396 357.989 225.879 358.124 225.362 358.259C206.586 358.572 194.832 348.002 187.211 333.39C184.865 328.892 183.426 323.92 181.837 318.634C182.744 317.286 183.385 316.469 183.843 315.984C183.987 316.959 184.314 317.604 184.576 318.553C185.079 319.461 185.648 320.062 186.217 320.664C186.873 319.906 187.529 319.149 188.212 318.435C188.238 318.479 188.174 318.397 188.589 318.43C196.173 317.291 203.342 315.993 209.723 321.148C210.219 321.549 211.259 321.275 212.035 321.322C212.024 321.329 212.028 321.303 212.08 321.631C213.062 322.373 213.991 322.786 214.902 323.216C214.885 323.233 214.892 323.185 214.942 323.554C217.063 324.506 219.134 325.088 221.533 325.622C223.656 325.563 225.451 325.552 227.422 325.709C228.075 325.911 228.552 325.946 229.383 326.002C231.123 325.096 232.509 324.168 233.961 323.124C234.028 323.008 234.295 323.038 234.627 323.08C235.559 322.612 236.158 322.103 236.907 321.441C237.057 321.289 237.482 321.241 237.806 321.249C238.554 320.854 238.977 320.451 239.413 320.11C239.425 320.172 239.312 320.115 239.566 320.127C240.06 319.916 240.301 319.694 240.63 319.335C240.718 319.199 241.042 319.212 241.446 319.273C249.779 316.546 257.484 316.725 264.804 321.412C264.149 324.524 263.421 327.982 262.681 331.612C262.556 331.873 262.352 331.956 262.348 332.049C262.338 332.254 262.429 332.464 262.426 333.006C260.469 336.283 258.566 339.227 256.663 342.17C256.663 342.17 256.708 342.228 256.346 342.253C254.623 344.138 253.263 345.998 251.902 347.857C251.902 347.857 251.946 347.927 251.554 347.92C248.632 349.895 244.08 349.368 243.657 353.963C243.657 353.963 243.387 353.79 243.162 353.776C240.902 354.774 238.866 355.787 236.83 356.799Z" fill="#FFD8B0" fill-opacity="0.91"/>
<path d="M184.027 315.652C183.385 316.469 182.744 317.286 181.875 318.267C180.334 311.466 179.02 304.499 177.787 296.73C177.765 295.159 177.661 294.389 177.558 293.619C177.552 292.02 177.547 290.42 177.671 288.437C177.801 288.052 177.794 288.019 177.794 288.019C178.749 287.863 179.703 287.707 181.398 287.715C182.66 287.777 183.18 287.675 183.701 287.573C208.945 287.574 234.188 287.574 260.208 287.693C261.213 287.733 261.443 287.653 261.673 287.574C263.182 287.57 264.69 287.567 266.92 287.696C267.869 287.741 268.097 287.653 268.325 287.566C269.013 287.579 269.701 287.592 270.651 288.064C270.96 288.702 271.005 288.881 271.05 289.06C271.05 293.181 271.05 297.302 271.05 301.747C277.095 301.302 282.713 302.786 284.875 310.114C286.892 316.953 284.398 324.778 277.909 329.378C274.361 331.892 270.292 334.244 266.126 335.159C261.762 336.118 259.1 338.167 256.949 342.018C258.566 339.227 260.469 336.283 262.769 332.908C271.309 330.621 278.819 327.512 281.392 318.76C282.301 315.667 281.794 311.329 280.179 308.598C278.987 306.582 275.003 305.893 272.133 305.441C271.478 305.338 270.01 308.557 269.39 310.405C267.052 317.381 264.909 324.423 262.693 331.439C263.421 327.982 264.149 324.524 264.804 321.412C257.484 316.725 249.779 316.546 241.676 319.005C248.878 314.849 256.252 314.692 264.699 319.731C265.895 309.557 266.987 300.269 267.824 290.677C266.803 290.241 266.036 289.997 265.27 289.996C238.889 289.976 212.509 289.968 186.129 290.008C184.926 290.01 183.725 290.461 182.186 290.786C181.264 291.67 180.229 292.447 180.185 293.276C180.091 295.087 180.389 296.944 180.724 298.746C181.776 304.391 182.919 310.018 184.027 315.652Z" fill="#FFD8B0" fill-opacity="0.91"/>
<path d="M243.983 353.909C244.08 349.368 248.632 349.895 251.516 347.903C249.35 349.881 246.829 351.867 243.983 353.909Z" fill="#FFD8B0" fill-opacity="0.91"/>
<path d="M252.188 347.732C253.263 345.998 254.623 344.138 256.312 342.239C255.251 344.002 253.863 345.805 252.188 347.732Z" fill="#FFD8B0" fill-opacity="0.91"/>
<path d="M229.501 358.256C230.871 357.731 232.605 357.278 234.572 357.053C233.159 357.63 231.513 357.978 229.501 358.256Z" fill="#FFD8B0" fill-opacity="0.91"/>
<path d="M237.187 356.805C238.866 355.787 240.902 354.774 243.306 353.848C241.63 354.893 239.587 355.852 237.187 356.805Z" fill="#FFD8B0" fill-opacity="0.91"/>
<path d="M177.437 293.862C177.662 294.389 177.765 295.158 177.776 296.311C177.561 295.832 177.438 294.969 177.437 293.862Z" fill="#FFD8B0" fill-opacity="0.91"/>
<path d="M271.195 288.921C271.005 288.881 270.96 288.702 270.943 288.248C271.125 287.882 271.279 287.791 271.432 287.7C271.401 288.061 271.37 288.421 271.195 288.921Z" fill="#FFD8B0" fill-opacity="0.91"/>
<path d="M183.509 287.401C183.18 287.675 182.66 287.777 181.767 287.715C182.035 287.444 182.676 287.337 183.509 287.401Z" fill="#FFD8B0" fill-opacity="0.91"/>
<path d="M394.629 456.259C389.437 449.983 387.634 442.637 387.65 434.665C387.684 417.882 387.736 401.098 387.585 384.316C387.557 381.262 388.711 379.778 391.372 378.677C396.187 376.684 400.742 373.979 405.663 372.348C418.716 368.022 420.389 358.617 419.928 345.194C419.89 344.102 419.556 343.018 419.339 341.935C417.543 332.975 412.2 329.672 403.812 333.409C396.485 336.673 389.798 341.344 382.591 344.916C377.695 347.341 372.528 349.577 367.229 350.732C361.88 351.898 359.319 349.383 358.558 343.92C358.231 341.577 358.097 339.195 358.049 336.827C357.9 329.508 357.26 328.617 350.254 326.537C349.497 326.312 348.727 326.124 347.989 325.849C347.727 325.752 347.543 325.446 346.773 324.709C348.27 323.405 349.778 322.22 351.123 320.873C351.923 320.072 352.467 319.014 353.127 318.072C352.057 317.571 351.024 316.947 349.905 316.607C349.019 316.338 347.946 316.629 347.099 316.302C344.567 315.323 342.766 314.117 343.91 310.653C345.116 307.003 345.541 303.095 346.337 299.154C341.213 298.39 336.914 297.749 332.056 297.025C333.468 293.031 334.41 289.566 335.881 286.342C341.755 273.465 343.516 259.822 344.365 245.861C344.961 236.051 347.153 226.44 352.376 217.867C355.293 213.08 358.801 207.652 364.718 207.906C370.631 208.16 374.596 213.184 377.262 218.465C382.62 229.076 383.181 240.63 383.576 252.192C383.716 256.304 383.637 260.429 383.93 264.529C384.911 278.258 394.112 287.278 407.879 287.875C413.725 288.129 419.59 287.879 425.446 287.916C441.352 288.018 448.141 293.571 450.521 309.125C452.098 319.431 452.926 329.85 454.339 340.184C454.827 343.753 455.813 347.311 457.019 350.715C460.172 359.608 466.217 364.76 476.03 365.175C480.104 365.348 484.183 366.155 488.171 367.064C489.25 367.31 490.003 368.983 491 370.39C491.061 391.417 491.028 412.053 490.884 433.504C490.851 443.446 487.721 451.14 480.6 457.048C480.6 457.048 480.298 457.068 479.872 457.246C474.34 458.616 469.289 460.392 464.118 460.861C456.825 461.522 449.444 461.215 442.1 461.322C441.67 461.3 441.24 461.277 440.068 461.225C430.119 461.275 420.912 461.355 411.705 461.435C410.067 461.361 408.43 461.287 406.067 461.099C402.098 459.703 398.854 458.421 395.61 457.138C395.61 457.138 395.576 457.235 395.531 456.967C395.196 456.542 394.907 456.385 394.618 456.228C394.618 456.228 394.611 456.277 394.629 456.259Z" fill="#FFD8B0" fill-opacity="0.91"/>
<path d="M349.871 527.604C344.19 534.603 338.522 541.564 330.253 545.847C314.599 553.956 296.476 549.57 286.82 534.974C278.622 522.58 273.166 508.849 269.408 494.618C262.911 470.023 257.174 445.227 251.169 420.503C248.957 411.397 249.024 411.359 239.777 410.426C231.125 409.553 222.441 408.941 213.82 407.827C206.621 406.897 200.614 403.311 196.236 397.543C191.749 391.63 187.819 385.298 183.399 379.332C178.863 373.209 183.512 367.221 182.231 359.905C193.927 369.81 199.923 384.054 214.229 388.101C222.836 390.536 231.908 391.326 242.249 393.109C234.97 383.637 223.863 379.491 220.984 368.051C223.53 369.946 225.979 371.988 228.638 373.708C236.998 379.117 245.282 384.673 253.897 389.65C260.384 393.398 264.885 398.19 267.249 405.461C275.516 430.888 284.962 455.879 297.015 479.786C301.495 488.673 306.624 497.235 311.53 505.904C312.348 507.35 313.538 508.585 314.703 510.11C318.241 495.305 321.37 480.869 325.175 466.613C330.113 448.116 336.245 430.024 346.062 413.407C351.408 404.359 358.349 397.4 367.966 392.224C367.235 417.694 366.526 442.392 365.902 467.406C365.895 468.302 365.802 468.881 365.557 470.106C363.62 482.742 361.833 494.733 360.045 506.724C360.045 506.724 359.978 506.855 359.755 507.197C356.811 513.452 354.09 519.366 351.37 525.28C351.37 525.28 351.374 525.365 351.13 525.495C350.793 525.921 350.701 526.217 350.609 526.513C350.609 526.513 350.738 526.559 350.46 526.612C350.072 526.979 349.962 527.291 349.853 527.604C349.853 527.604 349.881 527.617 349.871 527.604Z" fill="#FFD8B0" fill-opacity="0.91"/>
<path d="M501.647 518.604C511.441 517.585 511.45 517.585 511.444 508.092C511.418 465.962 511.385 423.832 511.354 381.702C511.353 380.032 511.354 378.362 511.354 375.939C522.735 383.155 530.52 392.469 536.269 403.56C546.748 423.778 549.726 445.624 549.687 468.019C549.653 488.39 547.667 508.484 540.159 527.704C532.723 546.741 519.201 555.927 498.711 554.985C463.767 553.378 428.766 552.47 394.091 547.101C391.954 546.77 389.231 548.177 387.214 549.457C375.531 556.868 363.227 562.395 349.111 562.583C338.142 562.73 327.767 560.642 317.99 553.239C327.929 551.772 335.733 547.59 342.407 541.273C343.785 539.968 345.45 538.787 346.352 537.192C349.84 531.025 355.669 529.142 362.04 528.065C372.026 526.377 382.012 524.679 392.349 522.821C393.122 522.655 393.545 522.653 394.623 522.597C397.252 522.248 399.226 521.953 401.2 521.658C401.619 521.678 402.037 521.697 403.171 521.706C419.796 521.043 435.707 520.392 451.617 519.741C452.038 519.798 452.46 519.856 453.507 519.949C454.561 519.887 454.989 519.791 455.417 519.694C460.499 519.704 465.581 519.714 471.526 519.746C481.618 519.35 490.846 518.932 500.075 518.514C500.493 518.549 500.912 518.584 501.647 518.604Z" fill="#FFD8B0" fill-opacity="0.91"/>
<path d="M491.791 364.424C485.982 363.465 480.593 362.088 475.127 361.633C466.818 360.941 461.728 356.309 460.012 348.808C457.872 339.458 456.961 329.828 455.494 320.324C454.578 314.39 453.964 308.382 452.595 302.552C450.196 292.337 443.27 286.43 433.06 285.167C426.036 284.298 418.855 284.616 411.743 284.554C394.832 284.408 387.492 276.75 386.986 259.718C386.677 249.326 385.658 238.917 384.293 228.604C383.211 220.431 379.486 213.27 372.971 207.698C377.712 207.554 380.903 209.244 383.039 214.445C385.964 221.566 388.576 228.871 390.588 236.296C393.139 245.713 395.994 254.79 403.354 261.746C407.955 266.094 413.325 268.328 419.658 268.226C427.888 268.094 436.152 268.369 444.342 267.726C458.14 266.644 467.948 272.895 473.492 284.643C478.095 294.398 481.547 304.932 483.845 315.482C487.508 332.305 492.39 348.438 502.017 362.885C502.932 364.258 503.414 365.919 503.993 367.752C503.487 368.011 503.084 367.965 502.221 367.605C500.916 367.141 500.072 366.992 499.227 366.843C499.227 366.843 499.173 366.937 499.063 366.598C497.427 365.865 495.902 365.472 494.376 365.079C493.643 364.859 492.91 364.639 491.791 364.424Z" fill="#FFD8B0" fill-opacity="0.91"/>
<path d="M452.849 201.167C476.933 216.944 491.48 239.48 501.307 265.54C510.797 290.704 514.002 317.065 516.048 343.637C516.837 353.891 517.555 364.15 518.378 375.402C516.911 374.176 515.991 373.534 515.221 372.745C499.9 357.029 491.379 338.081 487.672 316.564C485.444 303.628 482.273 290.838 474.721 279.664C467.845 269.489 458.708 263.728 446.044 264.337C437.982 264.724 429.908 264.88 421.838 265.097C413.015 265.334 405.929 261.775 401.564 254.212C398.601 249.081 396.563 243.357 394.592 237.729C392.927 232.975 392.322 227.843 390.597 223.116C386.647 212.29 382.514 201.359 366.526 203.962C372.557 194.616 380.817 190.596 389.972 188.286C408.412 183.632 425.764 187.907 442.561 195.52C446.01 197.084 449.234 199.144 452.849 201.167Z" fill="#FFD8B0" fill-opacity="0.91"/>
</g>
<defs>
<filter id="filter0_d_56_3057" x="-4" y="0" width="711.569" height="721" filterUnits="userSpaceOnUse" color-interpolation-filters="sRGB">
<feFlood flood-opacity="0" result="BackgroundImageFix"/>
<feColorMatrix in="SourceAlpha" type="matrix" values="0 0 0 0 0 0 0 0 0 0 0 0 0 0 0 0 0 0 127 0" result="hardAlpha"/>
<feOffset dy="4"/>
<feGaussianBlur stdDeviation="2"/>
<feComposite in2="hardAlpha" operator="out"/>
<feColorMatrix type="matrix" values="0 0 0 0 0 0 0 0 0 0 0 0 0 0 0 0 0 0 0.25 0"/>
<feBlend mode="normal" in2="BackgroundImageFix" result="effect1_dropShadow_56_3057"/>
<feBlend mode="normal" in="SourceGraphic" in2="effect1_dropShadow_56_3057" result="shape"/>
</filter>
</defs>
</svg>
