<svg version="1.1" id="Layer_1" xmlns="http://www.w3.org/2000/svg" xmlns:xlink="http://www.w3.org/1999/xlink" x="0px" y="0px"
	 width="100%" viewBox="0 0 740 750" enable-background="new 0 0 740 750" xml:space="preserve">
<path fill="#FEFEFF" opacity="1.000000" stroke="none" 
	d="
M741.000000,2.000000 
	C741.000000,251.623795 741.000000,501.247589 741.000000,750.935669 
	C494.418579,750.935669 247.837143,750.935669 1.127846,750.935669 
	C1.127846,501.000031 1.127846,251.000031 1.121639,1.000011 
	C90.100281,1.000000 179.085129,1.000000 268.597626,1.313879 
	C269.416840,1.418506 269.708435,1.209253 270.000000,1.000000 
	C315.690002,1.000000 361.379974,1.000000 407.393860,1.273840 
	C408.073700,1.644995 408.429688,1.742310 409.252563,1.899886 
	C413.146301,1.640097 416.573151,1.320049 420.000000,1.000001 
	C421.388885,1.000000 422.777802,1.000000 424.677063,1.428705 
	C428.791656,1.571608 432.395813,1.285806 436.000000,1.000001 
	C446.690002,1.000000 457.379974,1.000000 468.498108,1.437233 
	C470.950806,1.582976 472.975403,1.291487 475.000000,0.999999 
	C549.356628,1.000000 623.713318,1.000000 698.651855,1.429739 
	C713.155823,1.906319 727.077881,1.953159 741.000000,2.000000 
M385.379547,408.816589 
	C385.130280,409.026337 384.881012,409.236084 384.570496,409.533295 
	C384.570496,409.533295 384.466187,409.555969 383.831329,409.771973 
	C368.494843,418.872925 359.579803,433.079895 352.664612,448.897461 
	C343.840393,469.081543 337.897827,490.164154 333.016510,511.581696 
	C331.860840,516.652283 330.704712,521.722717 329.350983,527.661072 
	C328.034210,525.679382 327.261108,524.631836 326.607056,523.514709 
	C308.192963,492.059753 295.369598,458.207581 283.917511,423.774231 
	C281.599701,416.805176 277.192871,411.834595 270.929352,408.000336 
	C260.156403,401.405548 249.650665,394.373901 239.044373,387.507690 
	C236.676483,385.974792 234.467850,384.143768 231.962631,382.899445 
	C230.888916,382.366150 228.953445,382.552216 227.960129,383.224670 
	C227.282288,383.683594 226.995224,385.886444 227.499985,386.733856 
	C230.517014,391.799042 233.653229,396.813263 237.095184,401.595764 
	C238.540970,403.604614 240.832855,405.004517 242.740112,406.681244 
	C229.600967,407.418152 218.788666,403.634705 210.557129,393.642212 
	C206.219833,388.377014 201.743408,383.201050 196.973724,378.333710 
	C195.624420,376.956818 192.764496,375.905273 191.070938,376.383057 
	C189.695358,376.771118 188.594177,379.569855 188.149094,381.480652 
	C187.484177,384.334991 187.393738,387.343903 187.267746,390.295929 
	C187.180756,392.333588 186.716782,394.851532 187.675446,396.355347 
	C193.115448,404.888702 198.630432,413.409851 204.722519,421.480225 
	C209.255646,427.485443 215.618851,431.279572 223.294189,432.173737 
	C232.529694,433.249664 241.776611,434.272522 251.042068,435.032318 
	C258.800873,435.668579 259.113647,435.869781 260.831177,443.329010 
	C265.866455,465.197479 270.586700,487.151154 276.235565,508.861908 
	C281.179688,527.863953 287.188477,546.654175 298.030457,563.285706 
	C301.399139,568.453247 305.669373,574.384094 310.953033,576.671997 
	C322.067078,581.484558 333.811432,584.832397 344.091736,591.562195 
	C344.619843,591.907898 345.366699,591.909607 346.002472,592.101929 
	C367.340973,598.556213 387.203247,594.665710 405.688080,583.012939 
	C410.501556,579.978577 414.882050,579.369324 420.538452,579.816833 
	C456.715179,582.679260 492.933960,585.028381 529.155029,587.287842 
	C533.370056,587.550781 537.843933,586.762695 541.923706,585.544067 
	C557.368225,580.930542 566.684265,570.017029 571.987793,555.210999 
	C582.036621,527.157898 583.327637,498.217010 580.416382,468.937805 
	C578.343384,448.088928 573.537476,427.527893 559.635437,411.536163 
	C550.648132,401.197998 547.573853,390.459259 547.446777,377.771637 
	C547.415100,374.611450 547.108643,371.452179 546.878296,368.296143 
	C544.693176,338.353241 541.582031,308.559387 531.347473,280.047058 
	C521.764160,253.349060 507.484772,229.778030 484.212677,212.754883 
	C464.497559,198.333603 442.453156,190.499176 417.746979,193.093231 
	C403.050415,194.636307 389.907806,199.887436 381.932159,213.662140 
	C381.475708,214.450470 380.611176,215.169922 379.768951,215.541000 
	C373.138062,218.462494 369.031860,223.759201 365.912079,230.014618 
	C360.060486,241.747437 358.908417,254.460770 357.716461,267.259003 
	C357.031097,274.617645 355.625854,282.008270 353.606415,289.117950 
	C351.223785,297.506256 347.827454,305.606598 344.650513,314.444092 
	C350.056610,315.804077 354.970490,317.040253 360.051788,318.318512 
	C359.308441,321.859985 357.745667,325.360321 358.131927,328.630402 
	C358.483124,331.603668 360.952881,334.326660 362.884277,337.889587 
	C360.924713,342.123230 361.219086,345.688049 365.030396,346.169586 
	C372.751373,347.144989 373.772308,351.708160 373.149536,357.971558 
	C373.021301,359.261078 373.411102,360.611206 373.621765,361.923859 
	C375.054626,370.853363 379.959076,374.821808 388.657745,372.271912 
	C395.877228,370.155640 402.628540,366.335144 409.442474,362.976013 
	C415.095337,360.189270 420.361450,356.572327 426.119141,354.055969 
	C432.698669,351.180481 435.922211,352.810974 437.240509,359.920258 
	C438.128815,364.710693 437.838593,369.820282 437.409760,374.728912 
	C436.875946,380.839386 433.509857,384.857117 427.556763,387.268188 
	C419.726593,390.439575 412.221161,394.412811 404.002472,398.500885 
	C400.666656,400.363922 397.330841,402.226929 393.292786,404.010834 
	C390.804016,405.623352 388.315216,407.235870 385.927643,408.921875 
	C385.927643,408.921875 385.885620,408.804077 385.379547,408.816589 
M265.547119,365.645355 
	C267.007843,363.749542 268.468567,361.853699 270.000641,359.987457 
	C270.000641,359.987457 269.952637,359.926910 270.554749,359.605347 
	C272.516663,355.715240 275.315979,353.560303 279.906555,352.551971 
	C284.287994,351.589539 288.567322,349.115326 292.299225,346.470062 
	C299.124390,341.632294 301.747772,333.400909 299.626007,326.207062 
	C297.352264,318.498077 291.443329,316.937958 285.085266,317.406097 
	C285.085266,312.730316 285.085266,308.395294 285.388580,303.768097 
	C285.421387,303.388550 285.454163,303.009003 285.487000,302.629456 
	C285.325470,302.725067 285.163940,302.820679 284.389191,302.529724 
	C283.665985,302.516052 282.942780,302.502380 281.926208,302.167114 
	C281.542816,302.276642 281.159424,302.386169 279.982880,302.486328 
	C278.396210,302.489899 276.809540,302.493439 274.935547,302.156830 
	C274.547668,302.270172 274.159790,302.383514 272.865692,302.496857 
	C246.314941,302.496796 219.764206,302.496704 192.808716,302.134064 
	C192.134811,302.247406 191.460922,302.360748 190.011642,302.473602 
	C189.008041,302.637360 188.004440,302.801117 187.093842,302.653992 
	C186.937698,302.741516 186.781570,302.829041 186.625427,302.916565 
	C186.740784,302.944458 186.856140,302.972351 186.734039,303.808990 
	C186.740112,305.491333 186.746185,307.173706 186.497879,309.368011 
	C186.626343,310.275757 186.754807,311.183502 186.908279,312.972687 
	C188.290131,320.300781 189.671982,327.628845 190.974167,335.727509 
	C192.924393,340.729370 194.437531,345.959198 196.905258,350.691193 
	C204.920746,366.061340 217.282913,377.179199 237.670303,377.030884 
	C238.102325,376.957886 238.534348,376.884918 239.643265,376.936005 
	C240.095963,376.881317 240.548660,376.826630 241.769180,376.921478 
	C243.500717,376.554871 245.232269,376.188263 247.530045,375.908051 
	C248.050949,375.710175 248.571869,375.512299 249.843903,375.326721 
	C251.992981,374.318329 254.142059,373.309967 255.989700,372.149353 
	C255.989700,372.149353 256.273926,372.331848 256.959045,372.216797 
	C259.610321,370.126953 262.261597,368.037140 264.992096,365.982269 
	C264.992096,365.982269 264.945831,365.909027 265.547119,365.645355 
M282.762573,653.804138 
	C283.054871,653.701416 283.347168,653.598633 284.135437,653.570679 
	C284.423920,653.736328 284.712402,653.901978 285.461243,654.597656 
	C286.831970,654.412354 288.202698,654.227051 289.354370,654.788086 
	C287.650970,659.750854 285.947571,664.713623 284.128693,670.012939 
	C286.193146,670.681396 287.991333,671.263611 289.912262,671.885620 
	C291.753998,666.827698 293.424255,662.240723 295.069275,657.723083 
	C297.425568,658.216919 299.237701,658.596741 301.396301,659.690735 
	C297.912079,665.393860 297.863770,669.986694 301.247009,673.869812 
	C304.981689,678.156250 310.795319,679.211487 316.390411,676.436401 
	C315.832611,675.135681 315.267639,673.818237 315.274536,673.834412 
	C311.154297,672.581909 308.084412,671.648743 305.014526,670.715576 
	C305.171631,670.092651 305.328735,669.469727 305.485870,668.846741 
	C310.208069,669.112366 314.930267,669.377991 319.815979,669.652771 
	C320.810455,664.819702 319.927582,660.770447 315.659943,658.210144 
	C311.510864,655.721008 307.186890,655.516846 302.997589,658.435730 
	C302.462585,658.808533 301.681091,658.827576 300.173004,658.578247 
	C300.461121,657.320923 300.749207,656.063660 301.092438,654.565613 
	C299.640991,653.841675 298.277710,653.161682 295.724854,651.888306 
	C299.572296,650.703918 302.266418,649.874634 304.960571,649.045288 
	C304.876007,648.094849 304.791412,647.144348 304.706848,646.193848 
	C301.326538,645.913086 297.946198,645.632324 293.657837,645.147034 
	C293.041687,645.086365 292.425507,645.025757 291.980774,644.235413 
	C288.504639,638.830872 281.675537,638.634399 279.059265,644.180359 
	C275.964447,650.740906 273.487762,657.593018 270.638397,664.575378 
	C272.762848,665.482361 274.370667,666.168762 276.176514,666.939697 
	C278.165619,662.365845 280.002777,658.141418 282.762573,653.804138 
M510.390320,137.049332 
	C515.414490,124.605888 520.438599,112.162430 525.598389,99.383102 
	C519.690918,97.016243 514.352783,94.877480 508.571411,92.561134 
	C506.277710,98.228714 504.136963,103.591377 501.940216,108.931007 
	C497.641479,119.379814 493.820007,130.066223 488.838531,140.180237 
	C484.619019,148.747192 478.029846,150.563782 469.667542,147.073654 
	C461.571808,143.694794 458.804016,138.007614 461.070068,128.949829 
	C461.752167,126.223381 462.830872,123.583214 463.876556,120.962852 
	C469.153229,107.740410 474.479065,94.537560 479.910156,81.022995 
	C474.028748,78.652161 468.553680,76.445122 462.854340,74.147682 
	C456.581055,89.774170 450.125763,104.892593 444.440216,120.295151 
	C439.077576,134.822891 441.819641,146.989594 452.173065,155.236923 
	C463.309479,164.107971 475.948151,167.627701 488.511414,163.816498 
	C494.137787,168.842194 498.495300,174.053604 503.988373,177.402237 
	C523.085266,189.043961 541.822144,184.989838 551.132751,166.319733 
	C558.887207,150.770187 564.620667,134.212769 571.358826,117.835495 
	C565.374817,115.441429 559.877380,113.242004 554.007141,110.893440 
	C548.933777,123.678375 544.129700,136.240601 538.939514,148.641251 
	C536.845703,153.643936 534.437622,158.690979 531.209290,162.995377 
	C527.719604,167.648285 522.086914,168.264877 516.199524,165.840256 
	C510.473175,163.481934 505.592957,159.887634 506.208313,153.077118 
	C506.676270,147.897888 508.738800,142.862732 510.390320,137.049332 
M423.993530,124.347389 
	C433.645691,95.149834 415.044769,68.645164 384.100189,68.214645 
	C366.849304,67.974632 352.873322,74.830170 345.023285,90.924225 
	C337.329498,106.697960 340.099823,125.055992 351.487335,137.453461 
	C369.831970,157.425095 410.897034,156.001083 423.993530,124.347389 
M246.500046,105.850960 
	C246.222687,103.256836 245.945328,100.662704 245.503906,96.534103 
	C238.640472,98.226715 232.038620,99.103745 226.025223,101.473831 
	C205.158997,109.697960 193.566956,127.875168 206.739227,151.452591 
	C213.930038,164.323669 220.019302,177.810165 226.801956,191.413483 
	C232.451172,188.589676 237.724121,185.953949 243.253708,183.189957 
	C238.847565,174.340515 234.676697,165.963608 230.446701,157.467957 
	C240.214569,152.521133 249.360504,147.889282 258.890472,143.062958 
	C256.578644,138.287338 254.526413,134.048004 252.336334,129.523911 
	C242.383835,134.469513 232.959488,139.152679 223.592346,143.807419 
	C215.416199,130.445084 219.076813,122.834671 229.784592,117.387993 
	C234.947433,114.761833 240.942368,113.771538 247.006119,111.903198 
	C246.915375,110.679939 246.768921,108.705429 246.500046,105.850960 
M298.145264,138.181259 
	C293.506470,119.534492 288.867676,100.887726 284.168945,82.000122 
	C277.936279,83.536995 272.243317,84.940781 266.319092,86.401596 
	C272.835632,112.517998 279.204681,138.043304 285.649353,163.871674 
	C304.572479,159.116943 322.850952,154.524200 341.502808,149.837631 
	C340.158356,144.648849 338.968292,140.055908 337.687714,135.113586 
	C331.072693,136.746811 324.823486,138.294098 318.571991,139.832001 
	C312.359985,141.360184 306.145691,142.878952 299.788391,144.437164 
	C299.176300,142.181122 298.744995,140.591385 298.145264,138.181259 
M368.856781,683.657410 
	C373.082794,688.407654 378.285095,687.636414 383.609741,686.300354 
	C384.794037,686.003235 386.579315,685.274414 387.138397,685.784607 
	C390.109589,688.496216 391.031342,685.862122 391.194397,683.939758 
	C391.333191,680.920044 391.471985,677.900330 391.662476,673.755798 
	C389.413177,674.300415 387.380585,674.792603 385.064514,675.353394 
	C384.491272,675.064209 383.040375,674.332275 381.479645,673.544983 
	C386.862946,669.057312 387.875549,665.847107 385.676971,662.579102 
	C383.819916,659.818726 377.839722,658.942322 374.199310,660.897034 
	C370.492981,662.887146 370.015564,666.136658 372.598297,672.171875 
	C369.005005,674.920349 366.057800,677.992554 368.856781,683.657410 
M515.649963,632.397217 
	C516.900940,634.738403 518.213379,637.049255 519.386047,639.429077 
	C520.611633,641.916260 520.886597,644.771912 517.873413,645.660461 
	C516.353088,646.108704 513.633972,644.738586 512.388550,643.353210 
	C510.449890,641.196655 509.305206,638.326477 507.613190,635.393250 
	C505.767151,636.495850 504.168945,637.450439 502.426788,638.490967 
	C504.364594,642.017883 505.880249,645.163574 507.744720,648.086792 
	C511.288239,653.642395 516.000427,654.292908 521.181641,650.151123 
	C522.028442,649.474182 522.862915,648.781921 523.871643,647.959351 
	C524.439392,653.377686 523.117981,654.510742 514.284119,656.388245 
	C514.382507,657.730774 514.484131,659.117554 514.623840,661.023987 
	C517.163879,660.639587 519.339050,660.596069 521.323669,659.959045 
	C528.697083,657.592407 532.397156,651.940735 529.843201,646.196533 
	C527.172607,640.189880 523.716370,634.532593 520.343384,628.237000 
	C518.416992,629.641968 517.004150,630.672485 515.649963,632.397217 
M414.840637,685.699463 
	C415.932617,685.451050 417.046265,684.919495 418.113037,685.000977 
	C424.269226,685.471130 429.198914,681.194702 429.395203,675.065430 
	C429.618469,668.091248 425.093994,663.198975 418.569672,663.753845 
	C414.539124,664.096497 410.556641,665.004089 406.116425,665.729309 
	C407.239807,674.833313 408.362030,683.927917 409.513275,693.257874 
	C411.772369,692.998840 413.367889,692.815918 415.336029,692.590332 
	C415.184967,690.424744 415.048370,688.466370 414.840637,685.699463 
M454.899658,674.043335 
	C453.631561,668.635925 452.363464,663.228516 451.147217,658.042297 
	C446.527008,658.800476 442.508759,659.218079 438.615845,660.155884 
	C432.941711,661.522949 430.248108,667.942993 432.407959,674.295410 
	C434.266205,679.760803 439.824310,682.331299 445.201080,680.411865 
	C447.468079,679.602539 449.875061,679.115784 452.257874,678.719971 
	C454.651825,678.322266 455.902985,677.370361 454.899658,674.043335 
M268.443634,656.969971 
	C269.133850,656.039673 269.936646,655.171936 270.495056,654.168274 
	C273.042450,649.589539 272.171143,644.644165 268.264526,641.073730 
	C264.555847,637.684204 258.252991,637.047852 254.343338,639.668274 
	C250.569656,642.197632 248.764297,647.603088 250.194153,652.091797 
	C252.369797,658.921814 260.848724,661.500366 268.443634,656.969971 
M339.613007,674.141602 
	C343.604431,674.779236 344.482605,672.676086 343.173798,669.540833 
	C342.262054,667.356812 340.967407,664.962524 339.142731,663.603210 
	C334.677582,660.276794 328.085632,661.259399 324.666687,665.224365 
	C321.290985,669.139160 321.379364,675.738464 324.856873,679.418335 
	C328.895172,683.691650 335.885406,684.311768 341.896759,679.692139 
	C339.038422,678.933716 337.249359,678.467468 335.465179,677.983398 
	C333.292145,677.393799 331.123230,676.789124 328.952515,676.190979 
	C329.097198,675.648621 329.241882,675.106323 329.386566,674.563965 
	C332.506836,674.424927 335.627106,674.285950 339.613007,674.141602 
M469.152527,661.058716 
	C466.849182,661.200195 464.545837,661.341736 462.242493,661.483215 
	C462.112305,660.841736 461.982117,660.200256 461.851898,659.558777 
	C464.759216,658.672546 467.666504,657.786316 470.826111,656.823181 
	C470.826111,655.827332 470.826111,654.531494 470.826111,652.223328 
	C467.234039,653.073975 463.809570,653.498535 460.700165,654.723145 
	C457.146637,656.122559 454.916199,659.018127 456.262421,663.039551 
	C457.553162,666.895203 460.889526,667.352661 464.498322,666.849487 
	C466.259674,666.603821 468.053314,666.589661 469.832336,666.470764 
	C469.923676,667.175537 470.015015,667.880249 470.106354,668.585022 
	C466.826294,669.287903 463.546265,669.990784 459.919159,670.768066 
	C459.843811,671.760864 459.735046,673.193481 459.516418,676.073975 
	C464.303528,674.761353 468.635681,674.243286 472.213165,672.320862 
	C474.113281,671.299805 475.788544,667.718750 475.536377,665.526733 
	C475.342529,663.841370 471.978760,662.520630 469.152527,661.058716 
M244.928680,644.835632 
	C243.866638,644.466919 242.701019,644.267456 241.764160,643.694153 
	C239.831329,642.511230 236.520355,641.149963 236.501801,639.823975 
	C236.471985,637.693176 238.214569,634.868774 240.070435,633.644958 
	C241.094299,632.969727 244.947235,634.433899 245.643814,635.855408 
	C247.150558,638.929932 248.991806,638.972900 251.769852,638.342468 
	C252.227844,632.743591 248.812653,630.017212 244.521637,628.222961 
	C240.077850,626.364746 235.238464,627.886475 232.428650,631.557373 
	C229.257996,635.699707 229.187576,640.240417 232.228714,644.451233 
	C234.856003,648.089050 240.296051,650.142334 244.120605,649.000977 
	C246.240189,648.368408 246.862656,647.319214 244.928680,644.835632 
M487.941132,661.916016 
	C485.479279,661.515259 481.411926,655.212585 482.399139,653.100586 
	C483.551910,652.475708 484.807129,651.795349 486.321564,650.974426 
	C485.586395,649.468262 484.975922,648.217468 484.354767,646.944824 
	C482.832733,647.386047 481.608398,647.740967 480.215698,648.144653 
	C479.432770,646.701294 478.746460,645.435974 477.937683,643.944946 
	C476.124573,644.698425 474.511566,645.368713 472.471313,646.216614 
	C474.784882,652.154907 476.844696,657.894226 479.252838,663.483582 
	C481.277893,668.183716 486.137146,669.338867 490.378815,666.309875 
	C491.191010,665.729858 491.591095,664.572693 492.181335,663.681824 
	C490.995392,662.988464 489.809448,662.295105 487.941132,661.916016 
M489.437683,647.494019 
	C491.790253,652.764587 494.142853,658.035156 496.681702,663.723083 
	C498.750488,662.644104 500.417999,661.774414 501.652100,661.130798 
	C501.440399,654.971863 492.642059,649.642334 501.934143,644.000793 
	C501.070129,642.382141 500.266724,640.877014 499.708710,639.831543 
	C496.458527,641.128967 493.628448,641.999207 491.091522,643.400330 
	C490.090820,643.953003 489.743713,645.689087 489.437683,647.494019 
M233.530563,255.429123 
	C233.530563,261.733521 233.530563,268.037903 233.530563,274.342285 
	C234.192795,274.334137 234.855042,274.326019 235.517273,274.317871 
	C236.893951,266.790833 237.233627,259.273438 234.287369,251.755951 
	C234.096588,252.721512 233.905792,253.687057 233.530563,255.429123 
M199.111115,281.462494 
	C201.877838,284.789581 204.644547,288.116699 207.411255,291.443787 
	C208.049255,290.936005 208.687256,290.428192 209.325241,289.920380 
	C205.503067,284.855133 201.680878,279.789856 197.858704,274.724579 
	C197.323318,275.066742 196.787949,275.408905 196.252563,275.751068 
	C197.091339,277.446014 197.930099,279.140961 199.111115,281.462494 
M268.976562,281.550385 
	C269.766846,279.808746 270.557129,278.067078 271.347382,276.325409 
	C270.767120,275.993073 270.186829,275.660736 269.606537,275.328400 
	C265.871460,280.297607 262.136383,285.266785 258.401306,290.235962 
	C258.962158,290.690002 259.523010,291.144012 260.083862,291.598022 
	C262.906616,288.435455 265.729340,285.272888 268.976562,281.550385 
z"/>
<path fill="#000038" opacity="1.000000" stroke="none" 
	d="
M741.000000,1.500000 
	C727.077881,1.953159 713.155823,1.906319 699.116821,1.429739 
	C713.000000,1.000000 727.000000,1.000000 741.000000,1.500000 
z"/>
<path fill="#342D23" opacity="1.000000" stroke="none" 
	d="
M435.541931,1.000001 
	C432.395813,1.285806 428.791656,1.571608 425.093750,1.428705 
	C428.361298,1.000000 431.722565,1.000000 435.541931,1.000001 
z"/>
<path fill="#342D23" opacity="1.000000" stroke="none" 
	d="
M419.541931,1.000001 
	C416.573151,1.320049 413.146301,1.640097 409.302673,1.688693 
	C408.885895,1.417241 409.000000,1.000000 409.000000,1.000000 
	C412.361298,1.000000 415.722565,1.000000 419.541931,1.000001 
z"/>
<path fill="#342D23" opacity="1.000000" stroke="none" 
	d="
M474.571533,0.999999 
	C472.975403,1.291487 470.950806,1.582976 468.963104,1.437233 
	C470.714355,1.000000 472.428711,1.000000 474.571533,0.999999 
z"/>
<path fill="#000038" opacity="1.000000" stroke="none" 
	d="
M408.750000,1.000000 
	C409.000000,1.000000 408.885895,1.417241 408.835754,1.628433 
	C408.429688,1.742310 408.073700,1.644995 407.858887,1.273840 
	C408.000000,1.000000 408.500000,1.000000 408.750000,1.000000 
z"/>
<path fill="#443F38" opacity="1.000000" stroke="none" 
	d="
M269.750000,1.000000 
	C269.708435,1.209253 269.416840,1.418506 269.062622,1.313879 
	C269.000000,1.000000 269.500000,1.000000 269.750000,1.000000 
z"/>
<path fill="#01019D" opacity="1.000000" stroke="none" 
	d="
M393.995026,404.089966 
	C397.330841,402.226929 400.666656,400.363922 404.599854,398.324493 
	C405.506958,398.852509 406.068634,399.549408 406.089874,400.262421 
	C406.794891,423.937347 403.889252,447.742767 408.285187,471.246765 
	C408.884064,474.448853 412.736633,477.042419 415.063538,479.936310 
	C415.044373,479.954895 415.051971,479.902832 415.130066,480.165283 
	C415.522003,480.586304 415.835785,480.744843 416.104553,480.933105 
	C416.059540,480.962860 416.094696,480.860809 416.117249,481.219330 
	C419.164703,484.560333 422.536072,486.516937 427.427216,485.195801 
	C429.578705,485.224457 431.300781,485.302246 433.361816,485.613098 
	C443.460052,485.691620 453.219421,485.537109 463.306946,485.286865 
	C464.087463,485.214691 464.539825,485.238281 465.321899,485.513184 
	C475.959930,485.825348 486.285980,486.239105 496.565094,485.720673 
	C499.448242,485.575317 502.193085,482.687347 505.085022,480.922150 
	C505.168640,480.786865 505.485992,480.765961 505.860779,480.820374 
	C513.451233,478.196381 518.921448,466.409576 516.492126,455.611389 
	C516.453552,433.436218 516.488403,411.728546 516.850342,389.905121 
	C517.068848,387.639832 516.960144,385.490265 517.257019,383.335175 
	C518.433472,383.561005 519.204407,383.792389 520.154053,384.342041 
	C521.926392,385.077637 523.520020,385.494965 525.067139,385.945190 
	C525.020569,385.978088 525.077576,385.879395 525.099670,386.190857 
	C526.105530,386.651794 527.089355,386.801270 528.392090,386.981079 
	C529.134399,387.059692 529.557739,387.108032 530.047119,387.511810 
	C533.496094,389.313507 536.879089,390.759735 540.782654,392.428497 
	C535.948120,394.011749 536.028870,397.548706 536.030518,401.131012 
	C536.051270,446.282806 536.046814,491.434631 536.048767,536.586426 
	C536.048828,538.537354 536.048828,540.488220 536.048828,541.632324 
	C532.798462,543.186523 530.377686,544.344055 527.623047,545.516479 
	C526.849243,545.494568 526.409302,545.457764 525.715820,545.165955 
	C515.790161,545.153503 506.118011,545.391785 496.447113,545.673218 
	C496.269714,545.678406 496.107361,546.199768 495.486389,546.587280 
	C489.689636,546.683594 484.344452,546.672913 478.840027,546.470947 
	C478.115601,546.425232 477.550385,546.570862 476.658386,546.804565 
	C475.888306,546.832581 475.445038,546.772461 474.672119,546.461426 
	C460.404968,546.161682 446.465454,545.972107 432.531830,546.179504 
	C429.651764,546.222351 426.793701,547.741943 423.609985,548.685913 
	C422.854584,548.770142 422.414642,548.749451 421.694122,548.495483 
	C419.266571,548.665955 417.119598,549.069702 414.670349,549.622925 
	C413.923187,549.775024 413.478271,549.777649 412.709900,549.532471 
	C407.903564,549.829773 403.380859,550.156616 398.946045,550.965271 
	C389.671356,552.656372 380.453766,554.660706 371.179321,556.353333 
	C370.227936,556.526978 369.050110,555.459961 367.987488,554.982666 
	C367.997620,554.996704 367.968414,554.983093 368.214478,554.868652 
	C368.576019,554.427246 368.691528,554.100159 368.853333,553.828430 
	C368.899628,553.883728 368.763641,553.835632 369.028625,553.745239 
	C369.355530,553.314453 369.417450,552.974060 369.523804,552.630615 
	C369.568176,552.627625 369.564209,552.538757 369.914429,552.569702 
	C375.353729,547.167297 379.385742,541.274292 378.635101,533.233643 
	C378.618103,533.157898 378.688873,533.019714 379.020782,532.833862 
	C383.610291,520.255981 385.615601,507.543060 384.721222,494.125305 
	C384.743073,493.213074 384.841278,492.603485 385.227448,491.724121 
	C385.991882,488.689423 386.786224,485.936890 386.893707,483.157745 
	C387.657532,463.413696 388.279144,443.664124 388.949829,423.916443 
	C389.130219,418.604492 388.844452,413.442535 384.466187,409.555969 
	C384.466187,409.555969 384.570496,409.533295 384.874969,409.573303 
	C385.414825,409.343567 385.650208,409.073822 385.885620,408.804077 
	C385.885620,408.804077 385.927643,408.921875 386.256165,408.933014 
	C389.054840,407.326080 391.524933,405.708008 393.995026,404.089966 
z"/>
<path fill="#222190" opacity="1.000000" stroke="none" 
	d="
M527.956909,545.501526 
	C530.377686,544.344055 532.798462,543.186523 536.048828,541.632324 
	C536.048828,540.488220 536.048828,538.537354 536.048767,536.586426 
	C536.046814,491.434631 536.051270,446.282806 536.030518,401.131012 
	C536.028870,397.548706 535.948120,394.011749 540.782654,392.428497 
	C536.879089,390.759735 533.496094,389.313507 530.156433,387.191040 
	C529.481506,384.907990 528.974670,383.160339 528.012329,381.716125 
	C517.886597,366.519440 512.751953,349.549927 508.898621,331.853882 
	C506.481903,320.755432 502.850983,309.674896 498.009705,299.414459 
	C492.178528,287.056183 481.863312,280.480743 467.351044,281.619598 
	C458.736023,282.295654 450.045044,282.006378 441.388092,282.145508 
	C434.727722,282.252533 429.079193,279.903046 424.239777,275.328461 
	C416.499390,268.011688 413.496185,258.463623 410.812897,248.558716 
	C408.697021,240.748215 405.949432,233.063766 402.873383,225.573471 
	C400.626709,220.102753 397.269989,218.324234 392.283661,218.476059 
	C399.136047,224.337296 403.054413,231.869751 404.192261,240.467041 
	C405.628052,251.315552 406.699402,262.263947 407.024445,273.196106 
	C407.557098,291.111359 415.277344,299.166473 433.063690,299.320557 
	C440.544189,299.385345 448.097015,299.051056 455.484924,299.965332 
	C466.223206,301.294281 473.507507,307.507294 476.030548,318.252563 
	C477.470367,324.384552 478.116333,330.704742 479.079773,336.946381 
	C480.623047,346.944366 481.581207,357.073822 483.831787,366.908539 
	C485.637329,374.798553 490.989929,379.671906 499.729156,380.399658 
	C505.478363,380.878387 511.146820,382.326599 516.851440,383.340698 
	C516.960144,385.490265 517.068848,387.639832 516.751221,389.495270 
	C515.375549,388.130402 514.583313,386.370697 513.448730,386.111938 
	C509.254700,385.155579 504.963989,384.306702 500.679657,384.125366 
	C490.357788,383.688446 483.999878,378.268921 480.684174,368.914703 
	C479.414978,365.334015 478.378754,361.591797 477.865326,357.837128 
	C476.378754,346.966736 475.508026,336.007294 473.849487,325.166382 
	C471.346344,308.805237 464.205383,302.964233 447.476410,302.857300 
	C441.317047,302.817902 435.147491,303.080841 428.999573,302.814117 
	C414.519440,302.186005 404.841919,292.697571 403.810272,278.256134 
	C403.502167,273.943665 403.585388,269.604309 403.437653,265.279022 
	C403.022186,253.117325 402.432343,240.963760 396.797302,229.801910 
	C393.993042,224.247253 389.822723,218.962540 383.603485,218.695129 
	C377.380371,218.427551 373.690430,224.136948 370.622742,229.172775 
	C365.129333,238.190781 362.823639,248.300842 362.196136,258.619751 
	C361.303040,273.305115 359.451569,287.656036 353.272949,301.201233 
	C351.726013,304.592590 350.734711,308.237396 349.250275,312.438660 
	C354.359985,313.200378 358.880920,313.874329 364.270081,314.677704 
	C363.433197,318.823578 362.986084,322.934021 361.718048,326.773315 
	C360.514343,330.417816 362.409302,331.685852 365.072327,332.715607 
	C365.963104,333.060028 367.091980,332.753876 368.023346,333.036865 
	C369.200287,333.394501 370.286621,334.050446 371.412018,334.577698 
	C370.718536,335.569031 370.146149,336.681244 369.304352,337.524506 
	C367.889832,338.941559 366.304016,340.187592 364.729095,341.558807 
	C365.539093,342.334900 365.733093,342.656250 366.008606,342.758850 
	C366.784546,343.047974 367.594482,343.245789 368.390259,343.482086 
	C375.758972,345.669830 376.432373,346.606934 376.589264,354.305664 
	C376.640045,356.796661 376.780975,359.302460 377.124237,361.767578 
	C377.924347,367.513397 380.618317,370.159180 386.244110,368.933044 
	C391.818115,367.718201 397.252167,365.366150 402.401459,362.814362 
	C409.981812,359.057831 417.015717,354.144379 424.722107,350.710693 
	C433.543945,346.780060 439.163300,350.254089 441.052185,359.678802 
	C441.280640,360.818573 441.632599,361.958710 441.672028,363.107422 
	C442.156708,377.226410 440.397095,387.120026 426.668640,391.670227 
	C421.492828,393.385712 416.701538,396.231323 411.637970,398.327515 
	C408.838501,399.486389 407.625214,401.047455 407.654175,404.259247 
	C407.813385,421.912048 407.758972,439.567078 407.723053,457.221191 
	C407.705994,465.606934 409.601898,473.333679 415.082733,479.917725 
	C412.736633,477.042419 408.884064,474.448853 408.285187,471.246765 
	C403.889252,447.742767 406.794891,423.937347 406.089874,400.262421 
	C406.068634,399.549408 405.506958,398.852509 404.886658,398.094666 
	C412.221161,394.412811 419.726593,390.439575 427.556763,387.268188 
	C433.509857,384.857117 436.875946,380.839386 437.409760,374.728912 
	C437.838593,369.820282 438.128815,364.710693 437.240509,359.920258 
	C435.922211,352.810974 432.698669,351.180481 426.119141,354.055969 
	C420.361450,356.572327 415.095337,360.189270 409.442474,362.976013 
	C402.628540,366.335144 395.877228,370.155640 388.657745,372.271912 
	C379.959076,374.821808 375.054626,370.853363 373.621765,361.923859 
	C373.411102,360.611206 373.021301,359.261078 373.149536,357.971558 
	C373.772308,351.708160 372.751373,347.144989 365.030396,346.169586 
	C361.219086,345.688049 360.924713,342.123230 362.884277,337.889587 
	C360.952881,334.326660 358.483124,331.603668 358.131927,328.630402 
	C357.745667,325.360321 359.308441,321.859985 360.051788,318.318512 
	C354.970490,317.040253 350.056610,315.804077 344.650513,314.444092 
	C347.827454,305.606598 351.223785,297.506256 353.606415,289.117950 
	C355.625854,282.008270 357.031097,274.617645 357.716461,267.259003 
	C358.908417,254.460770 360.060486,241.747437 365.912079,230.014618 
	C369.031860,223.759201 373.138062,218.462494 379.768951,215.541000 
	C380.611176,215.169922 381.475708,214.450470 381.932159,213.662140 
	C389.907806,199.887436 403.050415,194.636307 417.746979,193.093231 
	C442.453156,190.499176 464.497559,198.333603 484.212677,212.754883 
	C507.484772,229.778030 521.764160,253.349060 531.347473,280.047058 
	C541.582031,308.559387 544.693176,338.353241 546.878296,368.296143 
	C547.108643,371.452179 547.415100,374.611450 547.446777,377.771637 
	C547.573853,390.459259 550.648132,401.197998 559.635437,411.536163 
	C573.537476,427.527893 578.343384,448.088928 580.416382,468.937805 
	C583.327637,498.217010 582.036621,527.157898 571.987793,555.210999 
	C566.684265,570.017029 557.368225,580.930542 541.923706,585.544067 
	C537.843933,586.762695 533.370056,587.550781 529.155029,587.287842 
	C492.933960,585.028381 456.715179,582.679260 420.538452,579.816833 
	C414.882050,579.369324 410.501556,579.978577 405.688080,583.012939 
	C387.203247,594.665710 367.340973,598.556213 346.002472,592.101929 
	C345.366699,591.909607 344.619843,591.907898 344.091736,591.562195 
	C333.811432,584.832397 322.067078,581.484558 310.953033,576.671997 
	C305.669373,574.384094 301.399139,568.453247 298.030457,563.285706 
	C287.188477,546.654175 281.179688,527.863953 276.235565,508.861908 
	C270.586700,487.151154 265.866455,465.197479 260.831177,443.329010 
	C259.113647,435.869781 258.800873,435.668579 251.042068,435.032318 
	C241.776611,434.272522 232.529694,433.249664 223.294189,432.173737 
	C215.618851,431.279572 209.255646,427.485443 204.722519,421.480225 
	C198.630432,413.409851 193.115448,404.888702 187.675446,396.355347 
	C186.716782,394.851532 187.180756,392.333588 187.267746,390.295929 
	C187.393738,387.343903 187.484177,384.334991 188.149094,381.480652 
	C188.594177,379.569855 189.695358,376.771118 191.070938,376.383057 
	C192.764496,375.905273 195.624420,376.956818 196.973724,378.333710 
	C201.743408,383.201050 206.219833,388.377014 210.557129,393.642212 
	C218.788666,403.634705 229.600967,407.418152 242.740112,406.681244 
	C240.832855,405.004517 238.540970,403.604614 237.095184,401.595764 
	C233.653229,396.813263 230.517014,391.799042 227.499985,386.733856 
	C226.995224,385.886444 227.282288,383.683594 227.960129,383.224670 
	C228.953445,382.552216 230.888916,382.366150 231.962631,382.899445 
	C234.467850,384.143768 236.676483,385.974792 239.044373,387.507690 
	C249.650665,394.373901 260.156403,401.405548 270.929352,408.000336 
	C277.192871,411.834595 281.599701,416.805176 283.917511,423.774231 
	C295.369598,458.207581 308.192963,492.059753 326.607056,523.514709 
	C327.261108,524.631836 328.034210,525.679382 329.350983,527.661072 
	C330.704712,521.722717 331.860840,516.652283 333.016510,511.581696 
	C337.897827,490.164154 343.840393,469.081543 352.664612,448.897461 
	C359.579803,433.079895 368.494843,418.872925 384.148743,409.663971 
	C388.844452,413.442535 389.130219,418.604492 388.949829,423.916443 
	C388.279144,443.664124 387.657532,463.413696 386.893707,483.157745 
	C386.786224,485.936890 385.991882,488.689423 385.137085,491.391724 
	C385.504578,465.349213 386.250397,439.369232 387.019562,412.577454 
	C376.904358,418.022858 369.604431,425.342468 363.981750,434.860016 
	C353.655731,452.338928 347.206146,471.369995 342.013336,490.827454 
	C338.011292,505.823181 334.719269,521.008423 330.998749,536.581543 
	C329.773285,534.977417 328.521515,533.677856 327.660919,532.156921 
	C322.501221,523.037903 317.106750,514.031677 312.394348,504.683502 
	C299.717407,479.535736 289.782074,453.248260 281.087402,426.501953 
	C278.600952,418.853210 273.866577,413.812531 267.044403,409.870758 
	C257.983093,404.635315 249.270340,398.790649 240.476669,393.101257 
	C237.680511,391.292175 235.104141,389.143311 232.427185,387.149902 
	C235.454514,399.183655 247.137253,403.545593 254.792923,413.509277 
	C243.916794,411.632904 234.374268,410.802490 225.321518,408.241058 
	C210.274857,403.983673 203.968460,389.001129 191.667252,378.582184 
	C193.014862,386.277405 188.124237,392.575714 192.895798,399.016693 
	C197.544876,405.292297 201.678299,411.953400 206.397507,418.172577 
	C211.001602,424.240082 217.319916,428.012085 224.892303,428.990814 
	C233.958771,430.162628 243.092789,430.806335 252.192932,431.724487 
	C261.919159,432.705780 261.848389,432.745697 264.174713,442.324493 
	C270.490906,468.331482 276.525208,494.414276 283.357788,520.285706 
	C287.311157,535.255005 293.048889,549.698547 301.672058,562.735352 
	C311.827972,578.089417 330.888947,582.702393 347.353943,574.172668 
	C356.051056,569.667114 362.012756,562.345093 367.977325,554.968628 
	C369.050110,555.459961 370.227936,556.526978 371.179321,556.353333 
	C380.453766,554.660706 389.671356,552.656372 398.946045,550.965271 
	C403.380859,550.156616 407.903564,549.829773 412.341156,549.704468 
	C401.792725,551.906067 391.290314,553.692200 380.786194,555.468079 
	C374.085388,556.600952 367.955139,558.581970 364.285980,565.069214 
	C363.337341,566.746460 361.586365,567.989075 360.137299,569.360962 
	C353.117584,576.006653 344.909607,580.405273 334.455505,581.948486 
	C344.738739,589.736084 355.651764,591.931946 367.187958,591.777832 
	C382.034882,591.579529 394.976807,585.765564 407.263794,577.970581 
	C409.386108,576.624146 412.249908,575.144165 414.497711,575.492249 
	C450.967621,581.139465 487.781494,582.094727 524.534607,583.784729 
	C546.085327,584.775635 560.307312,575.113708 568.128967,555.088440 
	C576.025818,534.870850 578.114014,513.734253 578.150635,492.306183 
	C578.190857,468.748688 575.059509,445.769775 564.037415,424.502411 
	C557.990967,412.835693 549.802795,403.037781 537.832458,395.447235 
	C537.832458,397.996246 537.831360,399.752747 537.832642,401.509277 
	C537.864624,445.825897 537.899170,490.142487 537.927307,534.459106 
	C537.933655,544.443848 537.923340,544.443848 527.956909,545.501526 
M475.995544,211.404541 
	C472.495544,209.478210 469.104828,207.310852 465.477051,205.666428 
	C447.810425,197.658295 429.560303,193.161804 410.165405,198.056641 
	C400.536530,200.486771 391.848236,204.715057 385.504883,214.546646 
	C402.320953,211.808182 406.668121,223.306702 410.822571,234.694336 
	C412.636719,239.666962 413.272736,245.064713 415.024323,250.066071 
	C417.097443,255.985413 419.241058,262.006317 422.356842,267.404388 
	C426.948517,275.359314 434.401123,279.103363 443.681213,278.853821 
	C452.168884,278.625580 460.660828,278.461670 469.140533,278.054108 
	C482.459747,277.413940 492.070038,283.474213 499.302551,294.176819 
	C507.245087,305.930176 510.580414,319.384491 512.924500,332.991974 
	C516.823425,355.625153 525.785278,375.556793 541.900024,392.087708 
	C542.709106,392.917694 543.677063,393.592804 545.220520,394.882874 
	C544.354431,383.046661 543.599182,372.255371 542.768982,361.469849 
	C540.617310,333.518738 537.246155,305.789551 527.265320,279.319550 
	C516.929504,251.907898 501.629486,228.202271 475.995544,211.404541 
z"/>
<path fill="#07079B" opacity="1.000000" stroke="none" 
	d="
M510.241089,137.406403 
	C508.738800,142.862732 506.676270,147.897888 506.208313,153.077118 
	C505.592957,159.887634 510.473175,163.481934 516.199524,165.840256 
	C522.086914,168.264877 527.719604,167.648285 531.209290,162.995377 
	C534.437622,158.690979 536.845703,153.643936 538.939514,148.641251 
	C544.129700,136.240601 548.933777,123.678375 554.007141,110.893440 
	C559.877380,113.242004 565.374817,115.441429 571.358826,117.835495 
	C564.620667,134.212769 558.887207,150.770187 551.132751,166.319733 
	C541.822144,184.989838 523.085266,189.043961 503.988373,177.402237 
	C498.495300,174.053604 494.137787,168.842194 488.511414,163.816498 
	C475.948151,167.627701 463.309479,164.107971 452.173065,155.236923 
	C441.819641,146.989594 439.077576,134.822891 444.440216,120.295151 
	C450.125763,104.892593 456.581055,89.774170 462.854340,74.147682 
	C468.553680,76.445122 474.028748,78.652161 479.910156,81.022995 
	C474.479065,94.537560 469.153229,107.740410 463.876556,120.962852 
	C462.830872,123.583214 461.752167,126.223381 461.070068,128.949829 
	C458.804016,138.007614 461.571808,143.694794 469.667542,147.073654 
	C478.029846,150.563782 484.619019,148.747192 488.838531,140.180237 
	C493.820007,130.066223 497.641479,119.379814 501.940216,108.931007 
	C504.136963,103.591377 506.277710,98.228714 508.571411,92.561134 
	C514.352783,94.877480 519.690918,97.016243 525.598389,99.383102 
	C520.438599,112.162430 515.414490,124.605888 510.241089,137.406403 
z"/>
<path fill="#07079B" opacity="1.000000" stroke="none" 
	d="
M423.846710,124.708496 
	C410.897034,156.001083 369.831970,157.425095 351.487335,137.453461 
	C340.099823,125.055992 337.329498,106.697960 345.023285,90.924225 
	C352.873322,74.830170 366.849304,67.974632 384.100189,68.214645 
	C415.044769,68.645164 433.645691,95.149834 423.846710,124.708496 
M375.219635,85.419968 
	C363.172211,91.096336 358.092926,100.216522 359.759796,113.661789 
	C360.925873,123.067490 366.023956,129.704636 374.890076,133.059448 
	C383.662689,136.378891 391.980042,135.161499 399.254822,129.112473 
	C407.905396,121.919449 410.608673,107.733109 405.500671,97.597504 
	C399.915283,86.514801 389.358765,82.056999 375.219635,85.419968 
z"/>
<path fill="#03039D" opacity="1.000000" stroke="none" 
	d="
M249.092773,375.314423 
	C248.571869,375.512299 248.050949,375.710175 247.001617,375.624939 
	C244.649246,375.818573 242.825317,376.295288 241.001373,376.771973 
	C240.548660,376.826630 240.095963,376.881317 239.153046,376.680420 
	C238.118973,376.566742 237.575119,376.708679 237.031265,376.850647 
	C217.282913,377.179199 204.920746,366.061340 196.905258,350.691193 
	C194.437531,345.959198 192.924393,340.729370 191.252792,335.168671 
	C192.206268,333.750793 192.881134,332.891724 193.362762,332.381195 
	C193.513733,333.407471 193.857941,334.085236 194.133057,335.084290 
	C194.662430,336.038452 195.260895,336.671356 195.859375,337.304260 
	C196.549545,336.507233 197.239716,335.710236 197.957611,334.959412 
	C197.985321,335.005615 197.917328,334.919952 198.354309,334.954102 
	C206.331116,333.755951 213.871216,332.390839 220.582336,337.813690 
	C221.103958,338.235229 222.198639,337.947540 223.014618,337.996948 
	C223.002274,338.004364 223.006516,337.976227 223.062042,338.321594 
	C224.094498,339.101807 225.071426,339.536621 226.030121,339.989014 
	C226.011887,340.006561 226.018890,339.956512 226.072067,340.344757 
	C228.303146,341.345276 230.481033,341.957581 233.003738,342.519592 
	C235.236588,342.457489 237.124619,342.445618 239.197937,342.610840 
	C239.885056,342.824066 240.386887,342.860168 241.260803,342.918884 
	C243.090454,341.966003 244.548004,340.990570 246.075638,339.892487 
	C246.145721,339.769836 246.426483,339.801361 246.776459,339.845825 
	C247.756180,339.353973 248.385925,338.817688 249.173859,338.121429 
	C249.332062,337.961456 249.779282,337.911835 250.119843,337.919861 
	C250.905945,337.503967 251.351456,337.080078 251.810028,336.721527 
	C251.823090,336.786865 251.703888,336.727325 251.970795,336.739563 
	C252.490723,336.517700 252.743774,336.283569 253.089508,335.906189 
	C253.182205,335.762939 253.523178,335.776978 253.948456,335.841400 
	C262.712646,332.972198 270.816742,333.160583 278.515564,338.091400 
	C277.826660,341.364655 277.061157,345.001770 276.282776,348.820801 
	C276.150787,349.094727 275.936432,349.182556 275.932068,349.279724 
	C275.922424,349.496033 276.017883,349.717010 276.014069,350.286377 
	C273.955963,353.733398 271.954315,356.830170 269.952637,359.926910 
	C269.952637,359.926910 270.000641,359.987457 269.619568,360.014008 
	C267.807587,361.996735 266.376709,363.952881 264.945831,365.909027 
	C264.945831,365.909027 264.992096,365.982269 264.579681,365.974579 
	C261.506561,368.051849 256.718231,367.498291 256.273926,372.331848 
	C256.273926,372.331848 255.989700,372.149353 255.753342,372.134521 
	C253.375580,373.184601 251.234177,374.249512 249.092773,375.314423 
z"/>
<path fill="#08089B" opacity="1.000000" stroke="none" 
	d="
M246.561249,106.290939 
	C246.768921,108.705429 246.915375,110.679939 247.006119,111.903198 
	C240.942368,113.771538 234.947433,114.761833 229.784592,117.387993 
	C219.076813,122.834671 215.416199,130.445084 223.592346,143.807419 
	C232.959488,139.152679 242.383835,134.469513 252.336334,129.523911 
	C254.526413,134.048004 256.578644,138.287338 258.890472,143.062958 
	C249.360504,147.889282 240.214569,152.521133 230.446701,157.467957 
	C234.676697,165.963608 238.847565,174.340515 243.253708,183.189957 
	C237.724121,185.953949 232.451172,188.589676 226.801956,191.413483 
	C220.019302,177.810165 213.930038,164.323669 206.739227,151.452591 
	C193.566956,127.875168 205.158997,109.697960 226.025223,101.473831 
	C232.038620,99.103745 238.640472,98.226715 245.503906,96.534103 
	C245.945328,100.662704 246.222687,103.256836 246.561249,106.290939 
z"/>
<path fill="#07079B" opacity="1.000000" stroke="none" 
	d="
M298.229492,138.591461 
	C298.744995,140.591385 299.176300,142.181122 299.788391,144.437164 
	C306.145691,142.878952 312.359985,141.360184 318.571991,139.832001 
	C324.823486,138.294098 331.072693,136.746811 337.687714,135.113586 
	C338.968292,140.055908 340.158356,144.648849 341.502808,149.837631 
	C322.850952,154.524200 304.572479,159.116943 285.649353,163.871674 
	C279.204681,138.043304 272.835632,112.517998 266.319092,86.401596 
	C272.243317,84.940781 277.936279,83.536995 284.168945,82.000122 
	C288.867676,100.887726 293.506470,119.534492 298.229492,138.591461 
z"/>
<path fill="#141388" opacity="1.000000" stroke="none" 
	d="
M193.556000,332.032684 
	C192.881134,332.891724 192.206268,333.750793 191.292633,334.783386 
	C189.671982,327.628845 188.290131,320.300781 186.993225,312.128784 
	C186.969528,310.475281 186.860901,309.665649 186.752258,308.856049 
	C186.746185,307.173706 186.740112,305.491333 186.870697,303.404724 
	C187.007370,303.000458 187.000824,302.964874 187.000824,302.964905 
	C188.004440,302.801117 189.008041,302.637360 190.790894,302.645355 
	C192.117920,302.710297 192.665695,302.603455 193.213455,302.496613 
	C219.764206,302.496704 246.314941,302.496796 273.681641,302.622375 
	C274.739319,302.664246 274.981079,302.580627 275.222870,302.497009 
	C276.809540,302.493439 278.396210,302.489899 280.741089,302.625427 
	C281.739380,302.672577 281.979492,302.580658 282.219574,302.488739 
	C282.942780,302.502380 283.665985,302.516052 284.666077,303.012695 
	C284.990387,303.683838 285.037811,303.872070 285.085266,304.060272 
	C285.085266,308.395294 285.085266,312.730316 285.085266,317.406097 
	C291.443329,316.937958 297.352264,318.498077 299.626007,326.207062 
	C301.747772,333.400909 299.124390,341.632294 292.299225,346.470062 
	C288.567322,349.115326 284.287994,351.589539 279.906555,352.551971 
	C275.315979,353.560303 272.516663,355.715240 270.253723,359.766113 
	C271.954315,356.830170 273.955963,353.733398 276.375916,350.184082 
	C285.357300,347.778503 293.256073,344.508026 295.962402,335.301392 
	C296.918732,332.048065 296.385712,327.485138 294.686584,324.611755 
	C293.433136,322.492035 289.243103,321.766724 286.224335,321.291840 
	C285.535492,321.183441 283.991364,324.568848 283.339630,326.513367 
	C280.880249,333.851227 278.626434,341.257965 276.295654,348.638916 
	C277.061157,345.001770 277.826660,341.364655 278.515564,338.091400 
	C270.816742,333.160583 262.712646,332.972198 254.190292,335.559204 
	C261.764984,331.187866 269.520691,331.022400 278.405640,336.322571 
	C279.663513,325.620972 280.811859,315.851318 281.692505,305.761047 
	C280.618378,305.303009 279.812042,305.045990 279.005524,305.045349 
	C251.259201,305.023529 223.512848,305.015930 195.766586,305.057251 
	C194.502075,305.059143 193.238235,305.533539 191.619781,305.875397 
	C190.649857,306.805298 189.561249,307.622955 189.515656,308.495117 
	C189.416092,310.399658 189.729568,312.353729 190.082535,314.248779 
	C191.188461,320.186401 192.390930,326.106079 193.556000,332.032684 
z"/>
<path fill="#161594" opacity="1.000000" stroke="none" 
	d="
M368.645813,683.359802 
	C366.057800,677.992554 369.005005,674.920349 372.598297,672.171875 
	C370.015564,666.136658 370.492981,662.887146 374.199310,660.897034 
	C377.839722,658.942322 383.819916,659.818726 385.676971,662.579102 
	C387.875549,665.847107 386.862946,669.057312 381.479645,673.544983 
	C383.040375,674.332275 384.491272,675.064209 385.064514,675.353394 
	C387.380585,674.792603 389.413177,674.300415 391.662476,673.755798 
	C391.471985,677.900330 391.333191,680.920044 391.194397,683.939758 
	C391.031342,685.862122 390.109589,688.496216 387.138397,685.784607 
	C386.579315,685.274414 384.794037,686.003235 383.609741,686.300354 
	C378.285095,687.636414 373.082794,688.407654 368.645813,683.359802 
M381.897308,681.044556 
	C380.218597,679.100159 378.539886,677.155762 375.884247,674.079773 
	C375.016479,676.996399 373.763062,678.960754 374.242554,680.308655 
	C374.626556,681.388245 377.069427,681.902710 378.688660,682.307617 
	C379.545105,682.521667 380.593750,681.966736 381.897308,681.044556 
z"/>
<path fill="#151593" opacity="1.000000" stroke="none" 
	d="
M515.620605,632.050049 
	C517.004150,630.672485 518.416992,629.641968 520.343384,628.237000 
	C523.716370,634.532593 527.172607,640.189880 529.843201,646.196533 
	C532.397156,651.940735 528.697083,657.592407 521.323669,659.959045 
	C519.339050,660.596069 517.163879,660.639587 514.623840,661.023987 
	C514.484131,659.117554 514.382507,657.730774 514.284119,656.388245 
	C523.117981,654.510742 524.439392,653.377686 523.871643,647.959351 
	C522.862915,648.781921 522.028442,649.474182 521.181641,650.151123 
	C516.000427,654.292908 511.288239,653.642395 507.744720,648.086792 
	C505.880249,645.163574 504.364594,642.017883 502.426788,638.490967 
	C504.168945,637.450439 505.767151,636.495850 507.613190,635.393250 
	C509.305206,638.326477 510.449890,641.196655 512.388550,643.353210 
	C513.633972,644.738586 516.353088,646.108704 517.873413,645.660461 
	C520.886597,644.771912 520.611633,641.916260 519.386047,639.429077 
	C518.213379,637.049255 516.900940,634.738403 515.620605,632.050049 
z"/>
<path fill="#111192" opacity="1.000000" stroke="none" 
	d="
M414.876190,686.103760 
	C415.048370,688.466370 415.184967,690.424744 415.336029,692.590332 
	C413.367889,692.815918 411.772369,692.998840 409.513275,693.257874 
	C408.362030,683.927917 407.239807,674.833313 406.116425,665.729309 
	C410.556641,665.004089 414.539124,664.096497 418.569672,663.753845 
	C425.093994,663.198975 429.618469,668.091248 429.395203,675.065430 
	C429.198914,681.194702 424.269226,685.471130 418.113037,685.000977 
	C417.046265,684.919495 415.932617,685.451050 414.876190,686.103760 
M420.726654,669.604492 
	C417.907074,668.132996 415.058441,668.573364 414.182312,671.510254 
	C413.550476,673.628296 414.228088,676.653442 415.432190,678.579956 
	C416.015411,679.513062 420.502502,679.527710 420.874054,678.784424 
	C421.960754,676.610474 421.907867,673.851196 422.189026,671.308716 
	C422.227570,670.959900 421.627441,670.540466 420.726654,669.604492 
z"/>
<path fill="#121294" opacity="1.000000" stroke="none" 
	d="
M454.963928,674.416016 
	C455.902985,677.370361 454.651825,678.322266 452.257874,678.719971 
	C449.875061,679.115784 447.468079,679.602539 445.201080,680.411865 
	C439.824310,682.331299 434.266205,679.760803 432.407959,674.295410 
	C430.248108,667.942993 432.941711,661.522949 438.615845,660.155884 
	C442.508759,659.218079 446.527008,658.800476 451.147217,658.042297 
	C452.363464,663.228516 453.631561,668.635925 454.963928,674.416016 
M443.314087,664.646179 
	C439.925079,664.584717 437.550812,666.333557 437.918915,669.590515 
	C438.148468,671.622070 439.932892,674.108704 441.731079,675.098450 
	C442.832062,675.704590 446.830963,673.884033 446.840759,673.118835 
	C446.874268,670.497131 445.736694,667.855530 444.986572,665.238464 
	C444.930725,665.043640 444.407227,664.982849 443.314087,664.646179 
z"/>
<path fill="#161594" opacity="1.000000" stroke="none" 
	d="
M268.158844,657.219238 
	C260.848724,661.500366 252.369797,658.921814 250.194153,652.091797 
	C248.764297,647.603088 250.569656,642.197632 254.343338,639.668274 
	C258.252991,637.047852 264.555847,637.684204 268.264526,641.073730 
	C272.171143,644.644165 273.042450,649.589539 270.495056,654.168274 
	C269.936646,655.171936 269.133850,656.039673 268.158844,657.219238 
M263.416107,653.196716 
	C265.960785,650.709595 267.125763,647.738220 264.334076,645.037292 
	C263.193390,643.933716 259.675720,643.403931 258.888885,644.214355 
	C257.307343,645.843445 255.879700,648.703735 256.164062,650.817078 
	C256.628754,654.270630 259.707062,654.631470 263.416107,653.196716 
z"/>
<path fill="#131390" opacity="1.000000" stroke="none" 
	d="
M301.013763,659.010498 
	C301.681091,658.827576 302.462585,658.808533 302.997589,658.435730 
	C307.186890,655.516846 311.510864,655.721008 315.659943,658.210144 
	C319.927582,660.770447 320.810455,664.819702 319.815979,669.652771 
	C314.930267,669.377991 310.208069,669.112366 305.485870,668.846741 
	C305.328735,669.469727 305.171631,670.092651 305.014526,670.715576 
	C308.084412,671.648743 311.154297,672.581909 315.274536,673.834412 
	C315.267639,673.818237 315.832611,675.135681 316.390411,676.436401 
	C310.795319,679.211487 304.981689,678.156250 301.247009,673.869812 
	C297.863770,669.986694 297.912079,665.393860 301.198303,659.328857 
	C301.000275,658.967041 301.013763,659.010437 301.013763,659.010498 
M307.888672,665.129578 
	C310.083618,665.352417 312.278595,665.575256 314.473541,665.798096 
	C314.670135,665.292725 314.866730,664.787292 315.063293,664.281921 
	C313.283875,663.206116 311.601624,661.614197 309.687500,661.253784 
	C308.590271,661.047241 307.116516,662.841003 305.812256,663.734192 
	C306.256531,664.182556 306.700806,664.630859 307.888672,665.129578 
z"/>
<path fill="#151593" opacity="1.000000" stroke="none" 
	d="
M339.180176,674.144287 
	C335.627106,674.285950 332.506836,674.424927 329.386566,674.563965 
	C329.241882,675.106323 329.097198,675.648621 328.952515,676.190979 
	C331.123230,676.789124 333.292145,677.393799 335.465179,677.983398 
	C337.249359,678.467468 339.038422,678.933716 341.896759,679.692139 
	C335.885406,684.311768 328.895172,683.691650 324.856873,679.418335 
	C321.379364,675.738464 321.290985,669.139160 324.666687,665.224365 
	C328.085632,661.259399 334.677582,660.276794 339.142731,663.603210 
	C340.967407,664.962524 342.262054,667.356812 343.173798,669.540833 
	C344.482605,672.676086 343.604431,674.779236 339.180176,674.144287 
M332.025208,666.655151 
	C330.811737,667.715515 329.598267,668.775879 328.384796,669.836182 
	C328.591827,670.206116 328.798859,670.576050 329.005859,670.945984 
	C331.924561,670.798157 334.843231,670.650330 337.761932,670.502441 
	C337.883911,669.916992 338.005890,669.331482 338.127869,668.745972 
	C336.323303,667.981384 334.518738,667.216797 332.025208,666.655151 
z"/>
<path fill="#151593" opacity="1.000000" stroke="none" 
	d="
M469.588562,661.048218 
	C471.978760,662.520630 475.342529,663.841370 475.536377,665.526733 
	C475.788544,667.718750 474.113281,671.299805 472.213165,672.320862 
	C468.635681,674.243286 464.303528,674.761353 459.516418,676.073975 
	C459.735046,673.193481 459.843811,671.760864 459.919159,670.768066 
	C463.546265,669.990784 466.826294,669.287903 470.106354,668.585022 
	C470.015015,667.880249 469.923676,667.175537 469.832336,666.470764 
	C468.053314,666.589661 466.259674,666.603821 464.498322,666.849487 
	C460.889526,667.352661 457.553162,666.895203 456.262421,663.039551 
	C454.916199,659.018127 457.146637,656.122559 460.700165,654.723145 
	C463.809570,653.498535 467.234039,653.073975 470.826111,652.223328 
	C470.826111,654.531494 470.826111,655.827332 470.826111,656.823181 
	C467.666504,657.786316 464.759216,658.672546 461.851898,659.558777 
	C461.982117,660.200256 462.112305,660.841736 462.242493,661.483215 
	C464.545837,661.341736 466.849182,661.200195 469.588562,661.048218 
z"/>
<path fill="#151593" opacity="1.000000" stroke="none" 
	d="
M245.123779,645.159912 
	C246.862656,647.319214 246.240189,648.368408 244.120605,649.000977 
	C240.296051,650.142334 234.856003,648.089050 232.228714,644.451233 
	C229.187576,640.240417 229.257996,635.699707 232.428650,631.557373 
	C235.238464,627.886475 240.077850,626.364746 244.521637,628.222961 
	C248.812653,630.017212 252.227844,632.743591 251.769852,638.342468 
	C248.991806,638.972900 247.150558,638.929932 245.643814,635.855408 
	C244.947235,634.433899 241.094299,632.969727 240.070435,633.644958 
	C238.214569,634.868774 236.471985,637.693176 236.501801,639.823975 
	C236.520355,641.149963 239.831329,642.511230 241.764160,643.694153 
	C242.701019,644.267456 243.866638,644.466919 245.123779,645.159912 
z"/>
<path fill="#191894" opacity="1.000000" stroke="none" 
	d="
M294.565887,645.351562 
	C297.946198,645.632324 301.326538,645.913086 304.706848,646.193848 
	C304.791412,647.144348 304.876007,648.094849 304.960571,649.045288 
	C302.266418,649.874634 299.572296,650.703918 295.724854,651.888306 
	C298.277710,653.161682 299.640991,653.841675 301.092438,654.565613 
	C300.749207,656.063660 300.461121,657.320923 300.593384,658.794312 
	C301.013763,659.010437 301.000275,658.967041 301.025085,658.971802 
	C299.237701,658.596741 297.425568,658.216919 295.069275,657.723083 
	C293.424255,662.240723 291.753998,666.827698 289.912262,671.885620 
	C287.991333,671.263611 286.193146,670.681396 284.128693,670.012939 
	C285.947571,664.713623 287.650970,659.750854 289.656677,654.150513 
	C291.494598,650.792480 293.030243,648.072021 294.565887,645.351562 
z"/>
<path fill="#161594" opacity="1.000000" stroke="none" 
	d="
M285.000854,654.067627 
	C284.712402,653.901978 284.423920,653.736328 283.645752,653.341248 
	C282.717346,653.380188 282.278656,653.648560 281.839966,653.916931 
	C280.002777,658.141418 278.165619,662.365845 276.176514,666.939697 
	C274.370667,666.168762 272.762848,665.482361 270.638397,664.575378 
	C273.487762,657.593018 275.964447,650.740906 279.059265,644.180359 
	C281.675537,638.634399 288.504639,638.830872 291.586517,644.740906 
	C290.121033,645.516968 289.057465,645.824280 287.976685,646.048950 
	C286.615143,646.332031 285.239563,646.547607 283.870026,646.792297 
	C283.947845,647.246338 284.025635,647.700317 284.103424,648.154358 
	C285.376221,648.798706 286.649048,649.443115 288.719116,650.491089 
	C287.248474,651.905640 286.124664,652.986633 285.000854,654.067627 
z"/>
<path fill="#161594" opacity="1.000000" stroke="none" 
	d="
M488.282318,661.758911 
	C489.809448,662.295105 490.995392,662.988464 492.181335,663.681824 
	C491.591095,664.572693 491.191010,665.729858 490.378815,666.309875 
	C486.137146,669.338867 481.277893,668.183716 479.252838,663.483582 
	C476.844696,657.894226 474.784882,652.154907 472.471313,646.216614 
	C474.511566,645.368713 476.124573,644.698425 477.937683,643.944946 
	C478.746460,645.435974 479.432770,646.701294 480.215698,648.144653 
	C481.608398,647.740967 482.832733,647.386047 484.354767,646.944824 
	C484.975922,648.217468 485.586395,649.468262 486.321564,650.974426 
	C484.807129,651.795349 483.551910,652.475708 482.399139,653.100586 
	C481.411926,655.212585 485.479279,661.515259 488.282318,661.758911 
z"/>
<path fill="#191894" opacity="1.000000" stroke="none" 
	d="
M489.268341,647.190186 
	C489.743713,645.689087 490.090820,643.953003 491.091522,643.400330 
	C493.628448,641.999207 496.458527,641.128967 499.708710,639.831543 
	C500.266724,640.877014 501.070129,642.382141 501.934143,644.000793 
	C492.642059,649.642334 501.440399,654.971863 501.652100,661.130798 
	C500.417999,661.774414 498.750488,662.644104 496.681702,663.723083 
	C494.142853,658.035156 491.790253,652.764587 489.268341,647.190186 
z"/>
<path fill="#2F308F" opacity="1.000000" stroke="none" 
	d="
M233.622787,255.040863 
	C233.905792,253.687057 234.096588,252.721512 234.287369,251.755951 
	C237.233627,259.273438 236.893951,266.790833 235.517273,274.317871 
	C234.855042,274.326019 234.192795,274.334137 233.530563,274.342285 
	C233.530563,268.037903 233.530563,261.733521 233.622787,255.040863 
z"/>
<path fill="#2F308F" opacity="1.000000" stroke="none" 
	d="
M198.940002,281.149200 
	C197.930099,279.140961 197.091339,277.446014 196.252563,275.751068 
	C196.787949,275.408905 197.323318,275.066742 197.858704,274.724579 
	C201.680878,279.789856 205.503067,284.855133 209.325241,289.920380 
	C208.687256,290.428192 208.049255,290.936005 207.411255,291.443787 
	C204.644547,288.116699 201.877838,284.789581 198.940002,281.149200 
z"/>
<path fill="#2F308F" opacity="1.000000" stroke="none" 
	d="
M268.764343,281.830353 
	C265.729340,285.272888 262.906616,288.435455 260.083862,291.598022 
	C259.523010,291.144012 258.962158,290.690002 258.401306,290.235962 
	C262.136383,285.266785 265.871460,280.297607 269.606537,275.328400 
	C270.186829,275.660736 270.767120,275.993073 271.347382,276.325409 
	C270.557129,278.067078 269.766846,279.808746 268.764343,281.830353 
z"/>
<path fill="#D6D7F4" opacity="1.000000" stroke="none" 
	d="
M285.231049,654.332642 
	C286.124664,652.986633 287.248474,651.905640 288.719116,650.491089 
	C286.649048,649.443115 285.376221,648.798706 284.103424,648.154358 
	C284.025635,647.700317 283.947845,647.246338 283.870026,646.792297 
	C285.239563,646.547607 286.615143,646.332031 287.976685,646.048950 
	C289.057465,645.824280 290.121033,645.516968 291.500793,645.105774 
	C292.425507,645.025757 293.041687,645.086365 294.111877,645.249268 
	C293.030243,648.072021 291.494598,650.792480 289.766174,653.777344 
	C288.202698,654.227051 286.831970,654.412354 285.231049,654.332642 
z"/>
<path fill="#141388" opacity="1.000000" stroke="none" 
	d="
M256.616486,372.274323 
	C256.718231,367.498291 261.506561,368.051849 264.540039,365.957092 
	C262.261597,368.037140 259.610321,370.126953 256.616486,372.274323 
z"/>
<path fill="#222190" opacity="1.000000" stroke="none" 
	d="
M393.643921,404.050415 
	C391.524933,405.708008 389.054840,407.326080 386.205566,408.896271 
	C388.315216,407.235870 390.804016,405.623352 393.643921,404.050415 
z"/>
<path fill="#141388" opacity="1.000000" stroke="none" 
	d="
M265.246460,365.777191 
	C266.376709,363.952881 267.807587,361.996735 269.583893,359.999207 
	C268.468567,361.853699 267.007843,363.749542 265.246460,365.777191 
z"/>
<path fill="#141388" opacity="1.000000" stroke="none" 
	d="
M241.385284,376.846741 
	C242.825317,376.295288 244.649246,375.818573 246.718491,375.581787 
	C245.232269,376.188263 243.500717,376.554871 241.385284,376.846741 
z"/>
<path fill="#141388" opacity="1.000000" stroke="none" 
	d="
M249.468338,375.320557 
	C251.234177,374.249512 253.375580,373.184601 255.904053,372.210632 
	C254.142059,373.309967 251.992981,374.318329 249.468338,375.320557 
z"/>
<path fill="#8483CB" opacity="1.000000" stroke="none" 
	d="
M186.625061,309.112030 
	C186.860901,309.665649 186.969528,310.475281 186.980713,311.688049 
	C186.754807,311.183502 186.626343,310.275757 186.625061,309.112030 
z"/>
<path fill="#141388" opacity="1.000000" stroke="none" 
	d="
M237.350784,376.940765 
	C237.575119,376.708679 238.118973,376.566742 238.814590,376.618347 
	C238.534348,376.884918 238.102325,376.957886 237.350784,376.940765 
z"/>
<path fill="#8483CB" opacity="1.000000" stroke="none" 
	d="
M285.236938,303.914185 
	C285.037811,303.872070 284.990387,303.683838 284.972656,303.205933 
	C285.163940,302.820679 285.325470,302.725067 285.487000,302.629456 
	C285.454163,303.009003 285.421387,303.388550 285.236938,303.914185 
z"/>
<path fill="#8483CB" opacity="1.000000" stroke="none" 
	d="
M193.011078,302.315338 
	C192.665695,302.603455 192.117920,302.710297 191.178589,302.645599 
	C191.460922,302.360748 192.134811,302.247406 193.011078,302.315338 
z"/>
<path fill="#D6D7F4" opacity="1.000000" stroke="none" 
	d="
M282.301270,653.860535 
	C282.278656,653.648560 282.717346,653.380188 283.397766,653.303833 
	C283.347168,653.598633 283.054871,653.701416 282.301270,653.860535 
z"/>
<path fill="#222190" opacity="1.000000" stroke="none" 
	d="
M385.632568,408.810303 
	C385.650208,409.073822 385.414825,409.343567 384.905609,409.529602 
	C384.881012,409.236084 385.130280,409.026337 385.632568,408.810303 
z"/>
<path fill="#8483CB" opacity="1.000000" stroke="none" 
	d="
M282.072876,302.327942 
	C281.979492,302.580658 281.739380,302.672577 281.137665,302.630096 
	C281.159424,302.386169 281.542816,302.276642 282.072876,302.327942 
z"/>
<path fill="#8483CB" opacity="1.000000" stroke="none" 
	d="
M275.079224,302.326904 
	C274.981079,302.580627 274.739319,302.664246 274.134735,302.622375 
	C274.159790,302.383514 274.547668,302.270172 275.079224,302.326904 
z"/>
<path fill="#8483CB" opacity="1.000000" stroke="none" 
	d="
M186.989441,303.000336 
	C186.856140,302.972351 186.740784,302.944458 186.625427,302.916565 
	C186.781570,302.829041 186.937698,302.741516 187.047333,302.809448 
	C187.000824,302.964874 187.007370,303.000458 186.989441,303.000336 
z"/>
<path fill="#FDFDFE" opacity="1.000000" stroke="none" 
	d="
M415.063538,479.936310 
	C409.601898,473.333679 407.705994,465.606934 407.723053,457.221191 
	C407.758972,439.567078 407.813385,421.912048 407.654175,404.259247 
	C407.625214,401.047455 408.838501,399.486389 411.637970,398.327515 
	C416.701538,396.231323 421.492828,393.385712 426.668640,391.670227 
	C440.397095,387.120026 442.156708,377.226410 441.672028,363.107422 
	C441.632599,361.958710 441.280640,360.818573 441.052185,359.678802 
	C439.163300,350.254089 433.543945,346.780060 424.722107,350.710693 
	C417.015717,354.144379 409.981812,359.057831 402.401459,362.814362 
	C397.252167,365.366150 391.818115,367.718201 386.244110,368.933044 
	C380.618317,370.159180 377.924347,367.513397 377.124237,361.767578 
	C376.780975,359.302460 376.640045,356.796661 376.589264,354.305664 
	C376.432373,346.606934 375.758972,345.669830 368.390259,343.482086 
	C367.594482,343.245789 366.784546,343.047974 366.008606,342.758850 
	C365.733093,342.656250 365.539093,342.334900 364.729095,341.558807 
	C366.304016,340.187592 367.889832,338.941559 369.304352,337.524506 
	C370.146149,336.681244 370.718536,335.569031 371.412018,334.577698 
	C370.286621,334.050446 369.200287,333.394501 368.023346,333.036865 
	C367.091980,332.753876 365.963104,333.060028 365.072327,332.715607 
	C362.409302,331.685852 360.514343,330.417816 361.718048,326.773315 
	C362.986084,322.934021 363.433197,318.823578 364.270081,314.677704 
	C358.880920,313.874329 354.359985,313.200378 349.250275,312.438660 
	C350.734711,308.237396 351.726013,304.592590 353.272949,301.201233 
	C359.451569,287.656036 361.303040,273.305115 362.196136,258.619751 
	C362.823639,248.300842 365.129333,238.190781 370.622742,229.172775 
	C373.690430,224.136948 377.380371,218.427551 383.603485,218.695129 
	C389.822723,218.962540 393.993042,224.247253 396.797302,229.801910 
	C402.432343,240.963760 403.022186,253.117325 403.437653,265.279022 
	C403.585388,269.604309 403.502167,273.943665 403.810272,278.256134 
	C404.841919,292.697571 414.519440,302.186005 428.999573,302.814117 
	C435.147491,303.080841 441.317047,302.817902 447.476410,302.857300 
	C464.205383,302.964233 471.346344,308.805237 473.849487,325.166382 
	C475.508026,336.007294 476.378754,346.966736 477.865326,357.837128 
	C478.378754,361.591797 479.414978,365.334015 480.684174,368.914703 
	C483.999878,378.268921 490.357788,383.688446 500.679657,384.125366 
	C504.963989,384.306702 509.254700,385.155579 513.448730,386.111938 
	C514.583313,386.370697 515.375549,388.130402 516.424072,389.610992 
	C516.488403,411.728546 516.453552,433.436218 516.302734,455.999573 
	C516.268066,466.458130 512.975220,474.551025 505.485992,480.765961 
	C505.485992,480.765961 505.168640,480.786865 504.719910,480.973694 
	C498.902100,482.415039 493.588715,484.283539 488.150635,484.776550 
	C480.479523,485.471985 472.716125,485.149292 464.992188,485.261902 
	C464.539825,485.238281 464.087463,485.214691 462.854858,485.159271 
	C452.390686,485.211639 442.706787,485.295837 433.022888,485.380035 
	C431.300781,485.302246 429.578705,485.224457 427.093872,485.026978 
	C422.919006,483.558441 419.506836,482.209625 416.094696,480.860809 
	C416.094696,480.860809 416.059540,480.962860 416.011780,480.680969 
	C415.660034,480.233643 415.355988,480.068237 415.051971,479.902832 
	C415.051971,479.902832 415.044373,479.954895 415.063538,479.936310 
z"/>
<path fill="#FBFBFD" opacity="1.000000" stroke="none" 
	d="
M367.987488,554.982666 
	C362.012756,562.345093 356.051056,569.667114 347.353943,574.172668 
	C330.888947,582.702393 311.827972,578.089417 301.672058,562.735352 
	C293.048889,549.698547 287.311157,535.255005 283.357788,520.285706 
	C276.525208,494.414276 270.490906,468.331482 264.174713,442.324493 
	C261.848389,432.745697 261.919159,432.705780 252.192932,431.724487 
	C243.092789,430.806335 233.958771,430.162628 224.892303,428.990814 
	C217.319916,428.012085 211.001602,424.240082 206.397507,418.172577 
	C201.678299,411.953400 197.544876,405.292297 192.895798,399.016693 
	C188.124237,392.575714 193.014862,386.277405 191.667252,378.582184 
	C203.968460,389.001129 210.274857,403.983673 225.321518,408.241058 
	C234.374268,410.802490 243.916794,411.632904 254.792923,413.509277 
	C247.137253,403.545593 235.454514,399.183655 232.427185,387.149902 
	C235.104141,389.143311 237.680511,391.292175 240.476669,393.101257 
	C249.270340,398.790649 257.983093,404.635315 267.044403,409.870758 
	C273.866577,413.812531 278.600952,418.853210 281.087402,426.501953 
	C289.782074,453.248260 299.717407,479.535736 312.394348,504.683502 
	C317.106750,514.031677 322.501221,523.037903 327.660919,532.156921 
	C328.521515,533.677856 329.773285,534.977417 330.998749,536.581543 
	C334.719269,521.008423 338.011292,505.823181 342.013336,490.827454 
	C347.206146,471.369995 353.655731,452.338928 363.981750,434.860016 
	C369.604431,425.342468 376.904358,418.022858 387.019562,412.577454 
	C386.250397,439.369232 385.504578,465.349213 384.849091,491.661560 
	C384.841278,492.603485 384.743073,493.213074 384.486298,494.501068 
	C382.448090,507.792908 380.568481,520.406311 378.688873,533.019714 
	C378.688873,533.019714 378.618103,533.157898 378.383118,533.516907 
	C375.286835,540.096863 372.425537,546.317810 369.564209,552.538757 
	C369.564209,552.538757 369.568176,552.627625 369.311279,552.764587 
	C368.957458,553.212891 368.860535,553.524292 368.763611,553.835632 
	C368.763641,553.835632 368.899628,553.883728 368.606720,553.940063 
	C368.198669,554.325256 368.083557,554.654175 367.968445,554.983093 
	C367.968414,554.983093 367.997620,554.996704 367.987488,554.982666 
z"/>
<path fill="#FBFBFD" opacity="1.000000" stroke="none" 
	d="
M527.623047,545.516479 
	C537.923340,544.443848 537.933655,544.443848 537.927307,534.459106 
	C537.899170,490.142487 537.864624,445.825897 537.832642,401.509277 
	C537.831360,399.752747 537.832458,397.996246 537.832458,395.447235 
	C549.802795,403.037781 557.990967,412.835693 564.037415,424.502411 
	C575.059509,445.769775 578.190857,468.748688 578.150635,492.306183 
	C578.114014,513.734253 576.025818,534.870850 568.128967,555.088440 
	C560.307312,575.113708 546.085327,584.775635 524.534607,583.784729 
	C487.781494,582.094727 450.967621,581.139465 414.497711,575.492249 
	C412.249908,575.144165 409.386108,576.624146 407.263794,577.970581 
	C394.976807,585.765564 382.034882,591.579529 367.187958,591.777832 
	C355.651764,591.931946 344.738739,589.736084 334.455505,581.948486 
	C344.909607,580.405273 353.117584,576.006653 360.137299,569.360962 
	C361.586365,567.989075 363.337341,566.746460 364.285980,565.069214 
	C367.955139,558.581970 374.085388,556.600952 380.786194,555.468079 
	C391.290314,553.692200 401.792725,551.906067 412.664612,549.952271 
	C413.478271,549.777649 413.923187,549.775024 415.057251,549.716064 
	C417.822510,549.349365 419.898621,549.039062 421.974731,548.728760 
	C422.414642,548.749451 422.854584,548.770142 424.047180,548.778809 
	C441.533813,548.081970 458.267822,547.397156 475.001801,546.712341 
	C475.445038,546.772461 475.888306,546.832581 476.989899,546.930420 
	C478.098602,546.866150 478.548920,546.764221 478.999268,546.662231 
	C484.344452,546.672913 489.689636,546.683594 495.942413,546.717896 
	C506.556458,546.301270 516.262878,545.861145 525.969360,545.420959 
	C526.409302,545.457764 526.849243,545.494568 527.623047,545.516479 
z"/>
<path fill="#F9FAFC" opacity="1.000000" stroke="none" 
	d="
M517.257019,383.335144 
	C511.146820,382.326599 505.478363,380.878387 499.729156,380.399658 
	C490.989929,379.671906 485.637329,374.798553 483.831787,366.908539 
	C481.581207,357.073822 480.623047,346.944366 479.079773,336.946381 
	C478.116333,330.704742 477.470367,324.384552 476.030548,318.252563 
	C473.507507,307.507294 466.223206,301.294281 455.484924,299.965332 
	C448.097015,299.051056 440.544189,299.385345 433.063690,299.320557 
	C415.277344,299.166473 407.557098,291.111359 407.024445,273.196106 
	C406.699402,262.263947 405.628052,251.315552 404.192261,240.467041 
	C403.054413,231.869751 399.136047,224.337296 392.283661,218.476059 
	C397.269989,218.324234 400.626709,220.102753 402.873383,225.573471 
	C405.949432,233.063766 408.697021,240.748215 410.812897,248.558716 
	C413.496185,258.463623 416.499390,268.011688 424.239777,275.328461 
	C429.079193,279.903046 434.727722,282.252533 441.388092,282.145508 
	C450.045044,282.006378 458.736023,282.295654 467.351044,281.619598 
	C481.863312,280.480743 492.178528,287.056183 498.009705,299.414459 
	C502.850983,309.674896 506.481903,320.755432 508.898621,331.853882 
	C512.751953,349.549927 517.886597,366.519440 528.012329,381.716125 
	C528.974670,383.160339 529.481506,384.907990 530.090454,386.835571 
	C529.557739,387.108032 529.134399,387.059692 528.226685,386.681030 
	C526.854065,386.193604 525.965820,386.036469 525.077576,385.879395 
	C525.077576,385.879395 525.020569,385.978088 524.905151,385.621582 
	C523.184875,384.851288 521.580078,384.437531 519.975281,384.023773 
	C519.204407,383.792389 518.433472,383.561005 517.257019,383.335144 
z"/>
<path fill="#222190" opacity="1.000000" stroke="none" 
	d="
M474.672119,546.461426 
	C458.267822,547.397156 441.533813,548.081970 424.362671,548.673828 
	C426.793701,547.741943 429.651764,546.222351 432.531830,546.179504 
	C446.465454,545.972107 460.404968,546.161682 474.672119,546.461426 
z"/>
<path fill="#222190" opacity="1.000000" stroke="none" 
	d="
M525.715820,545.165955 
	C516.262878,545.861145 506.556458,546.301270 496.393982,546.610901 
	C496.107361,546.199768 496.269714,545.678406 496.447113,545.673218 
	C506.118011,545.391785 515.790161,545.153503 525.715820,545.165955 
z"/>
<path fill="#222190" opacity="1.000000" stroke="none" 
	d="
M379.020782,532.833862 
	C380.568481,520.406311 382.448090,507.792908 384.562622,494.803711 
	C385.615601,507.543060 383.610291,520.255981 379.020782,532.833862 
z"/>
<path fill="#222190" opacity="1.000000" stroke="none" 
	d="
M465.321899,485.513153 
	C472.716125,485.149292 480.479523,485.471985 488.150635,484.776550 
	C493.588715,484.283539 498.902100,482.415039 504.636292,481.108978 
	C502.193085,482.687347 499.448242,485.575317 496.565094,485.720673 
	C486.285980,486.239105 475.959930,485.825348 465.321899,485.513153 
z"/>
<path fill="#222190" opacity="1.000000" stroke="none" 
	d="
M505.860779,480.820374 
	C512.975220,474.551025 516.268066,466.458130 516.376099,456.467041 
	C518.921448,466.409576 513.451233,478.196381 505.860779,480.820374 
z"/>
<path fill="#222190" opacity="1.000000" stroke="none" 
	d="
M369.914429,552.569702 
	C372.425537,546.317810 375.286835,540.096863 378.400116,533.592651 
	C379.385742,541.274292 375.353729,547.167297 369.914429,552.569702 
z"/>
<path fill="#222190" opacity="1.000000" stroke="none" 
	d="
M433.361816,485.613098 
	C442.706787,485.295837 452.390686,485.211639 462.526672,485.255005 
	C453.219421,485.537109 443.460052,485.691620 433.361816,485.613098 
z"/>
<path fill="#222190" opacity="1.000000" stroke="none" 
	d="
M416.117249,481.219330 
	C419.506836,482.209625 422.919006,483.558441 426.664490,485.076111 
	C422.536072,486.516937 419.164703,484.560333 416.117249,481.219330 
z"/>
<path fill="#222190" opacity="1.000000" stroke="none" 
	d="
M421.694122,548.495483 
	C419.898621,549.039062 417.822510,549.349365 415.359528,549.566589 
	C417.119598,549.069702 419.266571,548.665955 421.694122,548.495483 
z"/>
<path fill="#222190" opacity="1.000000" stroke="none" 
	d="
M520.154053,384.342041 
	C521.580078,384.437531 523.184875,384.851288 524.951660,385.588684 
	C523.520020,385.494965 521.926392,385.077637 520.154053,384.342041 
z"/>
<path fill="#222190" opacity="1.000000" stroke="none" 
	d="
M525.099670,386.190826 
	C525.965820,386.036469 526.854065,386.193604 527.907715,386.650757 
	C527.089355,386.801270 526.105530,386.651794 525.099670,386.190826 
z"/>
<path fill="#222190" opacity="1.000000" stroke="none" 
	d="
M478.840027,546.470947 
	C478.548920,546.764221 478.098602,546.866150 477.316711,546.842285 
	C477.550385,546.570862 478.115601,546.425232 478.840027,546.470947 
z"/>
<path fill="#222190" opacity="1.000000" stroke="none" 
	d="
M368.214478,554.868652 
	C368.083557,554.654175 368.198669,554.325256 368.560425,553.884766 
	C368.691528,554.100159 368.576019,554.427246 368.214478,554.868652 
z"/>
<path fill="#222190" opacity="1.000000" stroke="none" 
	d="
M369.028625,553.745239 
	C368.860535,553.524292 368.957458,553.212891 369.266907,552.767578 
	C369.417450,552.974060 369.355530,553.314453 369.028625,553.745239 
z"/>
<path fill="#222190" opacity="1.000000" stroke="none" 
	d="
M415.130066,480.165283 
	C415.355988,480.068237 415.660034,480.233643 416.056824,480.651215 
	C415.835785,480.744843 415.522003,480.586304 415.130066,480.165283 
z"/>
<path fill="#FCFCFD" opacity="1.000000" stroke="none" 
	d="
M476.298157,211.606018 
	C501.629486,228.202271 516.929504,251.907898 527.265320,279.319550 
	C537.246155,305.789551 540.617310,333.518738 542.768982,361.469849 
	C543.599182,372.255371 544.354431,383.046661 545.220520,394.882874 
	C543.677063,393.592804 542.709106,392.917694 541.900024,392.087708 
	C525.785278,375.556793 516.823425,355.625153 512.924500,332.991974 
	C510.580414,319.384491 507.245087,305.930176 499.302551,294.176819 
	C492.070038,283.474213 482.459747,277.413940 469.140533,278.054108 
	C460.660828,278.461670 452.168884,278.625580 443.681213,278.853821 
	C434.401123,279.103363 426.948517,275.359314 422.356842,267.404388 
	C419.241058,262.006317 417.097443,255.985413 415.024323,250.066071 
	C413.272736,245.064713 412.636719,239.666962 410.822571,234.694336 
	C406.668121,223.306702 402.320953,211.808182 385.504883,214.546646 
	C391.848236,204.715057 400.536530,200.486771 410.165405,198.056641 
	C429.560303,193.161804 447.810425,197.658295 465.477051,205.666428 
	C469.104828,207.310852 472.495544,209.478210 476.298157,211.606018 
z"/>
<path fill="#FAFAFD" opacity="1.000000" stroke="none" 
	d="
M375.593994,85.273300 
	C389.358765,82.056999 399.915283,86.514801 405.500671,97.597504 
	C410.608673,107.733109 407.905396,121.919449 399.254822,129.112473 
	C391.980042,135.161499 383.662689,136.378891 374.890076,133.059448 
	C366.023956,129.704636 360.925873,123.067490 359.759796,113.661789 
	C358.092926,100.216522 363.172211,91.096336 375.593994,85.273300 
z"/>
<path fill="#FBFBFC" opacity="1.000000" stroke="none" 
	d="
M193.362762,332.381195 
	C192.390930,326.106079 191.188461,320.186401 190.082535,314.248779 
	C189.729568,312.353729 189.416092,310.399658 189.515656,308.495117 
	C189.561249,307.622955 190.649857,306.805298 192.081940,305.975586 
	C222.585709,306.019379 252.272964,306.050537 281.960205,306.081665 
	C280.811859,315.851318 279.663513,325.620972 278.405640,336.322571 
	C269.520691,331.022400 261.764984,331.187866 253.765015,335.494751 
	C253.523178,335.776978 253.182205,335.762939 252.820786,335.895935 
	C252.207535,336.261749 251.955719,336.494537 251.703888,336.727325 
	C251.703888,336.727325 251.823090,336.786865 251.497864,336.764465 
	C250.708191,337.131989 250.243744,337.521912 249.779282,337.911835 
	C249.779282,337.911835 249.332062,337.961456 248.869019,338.174133 
	C247.746140,338.858337 247.086319,339.329834 246.426483,339.801361 
	C246.426483,339.801361 246.145721,339.769836 245.732697,339.898804 
	C243.878159,340.696106 242.436630,341.364380 240.648376,341.990906 
	C239.871979,342.110687 239.442322,342.272217 239.012665,342.433746 
	C237.124619,342.445618 235.236588,342.457489 232.711884,342.295715 
	C230.056458,341.400177 228.037674,340.678345 226.018890,339.956512 
	C226.018890,339.956512 226.011887,340.006561 225.864105,339.723389 
	C224.813049,338.952240 223.909790,338.464233 223.006516,337.976227 
	C223.006516,337.976227 223.002274,338.004364 222.846252,337.698608 
	C214.890259,331.983734 206.779602,329.687195 197.917328,334.919952 
	C197.917328,334.919952 197.985321,335.005615 197.555603,335.004456 
	C196.151321,334.923218 195.176727,334.843109 194.202148,334.763000 
	C193.857941,334.085236 193.513733,333.407471 193.362762,332.381195 
z"/>
<path fill="#F2F2F9" opacity="1.000000" stroke="none" 
	d="
M276.282776,348.820801 
	C278.626434,341.257965 280.880249,333.851227 283.339630,326.513367 
	C283.991364,324.568848 285.535492,321.183441 286.224335,321.291840 
	C289.243103,321.766724 293.433136,322.492035 294.686584,324.611755 
	C296.385712,327.485138 296.918732,332.048065 295.962402,335.301392 
	C293.256073,344.508026 285.357300,347.778503 276.432373,349.833801 
	C276.017883,349.717010 275.922424,349.496033 275.932068,349.279724 
	C275.936432,349.182556 276.150787,349.094727 276.282776,348.820801 
z"/>
<path fill="#2F308F" opacity="1.000000" stroke="none" 
	d="
M198.354309,334.954102 
	C206.779602,329.687195 214.890259,331.983734 222.858597,337.691193 
	C222.198639,337.947540 221.103958,338.235229 220.582336,337.813690 
	C213.871216,332.390839 206.331116,333.755951 198.354309,334.954102 
z"/>
<path fill="#2F308F" opacity="1.000000" stroke="none" 
	d="
M226.072067,340.344757 
	C228.037674,340.678345 230.056458,341.400177 232.367081,342.345947 
	C230.481033,341.957581 228.303146,341.345276 226.072067,340.344757 
z"/>
<path fill="#141388" opacity="1.000000" stroke="none" 
	d="
M240.995102,342.032654 
	C242.436630,341.364380 243.878159,340.696106 245.662628,340.021484 
	C244.548004,340.990570 243.090454,341.966003 241.291077,342.703857 
	C240.949234,342.466309 240.995102,342.032654 240.995102,342.032654 
z"/>
<path fill="#2F308F" opacity="1.000000" stroke="none" 
	d="
M194.133057,335.084290 
	C195.176727,334.843109 196.151321,334.923218 197.527893,334.958252 
	C197.239716,335.710236 196.549545,336.507233 195.859375,337.304260 
	C195.260895,336.671356 194.662430,336.038452 194.133057,335.084290 
z"/>
<path fill="#2F308F" opacity="1.000000" stroke="none" 
	d="
M223.062042,338.321594 
	C223.909790,338.464233 224.813049,338.952240 225.882324,339.705872 
	C225.071426,339.536621 224.094498,339.101807 223.062042,338.321594 
z"/>
<path fill="#141388" opacity="1.000000" stroke="none" 
	d="
M246.776459,339.845825 
	C247.086319,339.329834 247.746140,338.858337 248.710815,338.334106 
	C248.385925,338.817688 247.756180,339.353973 246.776459,339.845825 
z"/>
<path fill="#2F308F" opacity="1.000000" stroke="none" 
	d="
M240.648376,341.990906 
	C240.995102,342.032654 240.949234,342.466309 240.918976,342.681305 
	C240.386887,342.860168 239.885056,342.824066 239.197937,342.610840 
	C239.442322,342.272217 239.871979,342.110687 240.648376,341.990906 
z"/>
<path fill="#141388" opacity="1.000000" stroke="none" 
	d="
M250.119843,337.919861 
	C250.243744,337.521912 250.708191,337.131989 251.484802,336.699127 
	C251.351456,337.080078 250.905945,337.503967 250.119843,337.919861 
z"/>
<path fill="#141388" opacity="1.000000" stroke="none" 
	d="
M251.970795,336.739563 
	C251.955719,336.494537 252.207535,336.261749 252.728088,336.039185 
	C252.743774,336.283569 252.490723,336.517700 251.970795,336.739563 
z"/>
<path fill="#383882" opacity="1.000000" stroke="none" 
	d="
M281.692505,305.761078 
	C252.272964,306.050537 222.585709,306.019379 192.436264,305.888062 
	C193.238235,305.533539 194.502075,305.059143 195.766586,305.057251 
	C223.512848,305.015930 251.259201,305.023529 279.005524,305.045349 
	C279.812042,305.045990 280.618378,305.303009 281.692505,305.761078 
z"/>
<path fill="#EBECF8" opacity="1.000000" stroke="none" 
	d="
M381.726471,681.401733 
	C380.593750,681.966736 379.545105,682.521667 378.688660,682.307617 
	C377.069427,681.902710 374.626556,681.388245 374.242554,680.308655 
	C373.763062,678.960754 375.016479,676.996399 375.884247,674.079773 
	C378.539886,677.155762 380.218597,679.100159 381.726471,681.401733 
z"/>
<path fill="#EBECF8" opacity="1.000000" stroke="none" 
	d="
M421.024841,669.879089 
	C421.627441,670.540466 422.227570,670.959900 422.189026,671.308716 
	C421.907867,673.851196 421.960754,676.610474 420.874054,678.784424 
	C420.502502,679.527710 416.015411,679.513062 415.432190,678.579956 
	C414.228088,676.653442 413.550476,673.628296 414.182312,671.510254 
	C415.058441,668.573364 417.907074,668.132996 421.024841,669.879089 
z"/>
<path fill="#EBECF8" opacity="1.000000" stroke="none" 
	d="
M443.707611,664.752930 
	C444.407227,664.982849 444.930725,665.043640 444.986572,665.238464 
	C445.736694,667.855530 446.874268,670.497131 446.840759,673.118835 
	C446.830963,673.884033 442.832062,675.704590 441.731079,675.098450 
	C439.932892,674.108704 438.148468,671.622070 437.918915,669.590515 
	C437.550812,666.333557 439.925079,664.584717 443.707611,664.752930 
z"/>
<path fill="#EBECF8" opacity="1.000000" stroke="none" 
	d="
M263.092773,653.426392 
	C259.707062,654.631470 256.628754,654.270630 256.164062,650.817078 
	C255.879700,648.703735 257.307343,645.843445 258.888885,644.214355 
	C259.675720,643.403931 263.193390,643.933716 264.334076,645.037292 
	C267.125763,647.738220 265.960785,650.709595 263.092773,653.426392 
z"/>
<path fill="#D6D7F4" opacity="1.000000" stroke="none" 
	d="
M307.516846,665.104370 
	C306.700806,664.630859 306.256531,664.182556 305.812256,663.734192 
	C307.116516,662.841003 308.590271,661.047241 309.687500,661.253784 
	C311.601624,661.614197 313.283875,663.206116 315.063293,664.281921 
	C314.866730,664.787292 314.670135,665.292725 314.473541,665.798096 
	C312.278595,665.575256 310.083618,665.352417 307.516846,665.104370 
z"/>
<path fill="#D6D7F4" opacity="1.000000" stroke="none" 
	d="
M332.369690,666.553650 
	C334.518738,667.216797 336.323303,667.981384 338.127869,668.745972 
	C338.005890,669.331482 337.883911,669.916992 337.761932,670.502441 
	C334.843231,670.650330 331.924561,670.798157 329.005859,670.945984 
	C328.798859,670.576050 328.591827,670.206116 328.384796,669.836182 
	C329.598267,668.775879 330.811737,667.715515 332.369690,666.553650 
z"/>
</svg>