<svg version="1.1" id="Layer_1" xmlns="http://www.w3.org/2000/svg" xmlns:xlink="http://www.w3.org/1999/xlink" x="0px" y="0px"
	 width="100%" viewBox="0 0 1413 493" enable-background="new 0 0 1413 493" xml:space="preserve">
<path fill="#FDFDFE" opacity="1.000000" stroke="none" 
	d="
M895.000000,494.000000 
	C596.705688,494.000000 298.911407,494.000000 1.058556,494.000000 
	C1.058556,329.727264 1.058556,165.454498 1.058556,1.090865 
	C471.877655,1.090865 942.755371,1.090865 1413.816528,1.090865 
	C1413.816528,165.333176 1413.816528,329.666565 1413.816528,494.000000 
	C1241.121094,494.000000 1068.310547,494.000000 895.000000,494.000000 
M31.311855,340.746063 
	C31.628515,345.631012 32.698086,350.077881 37.964943,352.875824 
	C40.299995,358.201569 42.197105,363.774689 45.042583,368.812103 
	C61.130123,397.292328 74.935799,426.894531 88.724762,456.513428 
	C93.419617,466.598022 98.360580,476.568085 103.272522,486.763641 
	C124.251984,476.169739 144.833221,465.776947 165.709061,455.235382 
	C149.485107,422.667084 133.491592,390.561340 117.274757,358.007324 
	C153.299240,339.773712 189.035706,321.685883 225.004913,303.480255 
	C216.599182,286.290527 208.309570,269.338287 199.967361,252.278503 
	C181.413315,261.495056 163.533783,270.365753 145.664078,279.256165 
	C127.845200,288.121307 110.036156,297.006256 91.475197,306.255035 
	C87.438087,298.006775 83.285065,290.424683 79.932663,282.503723 
	C69.710793,258.351685 74.394257,236.763306 93.711189,219.601105 
	C105.105431,209.477875 118.851517,203.357544 133.235107,198.873474 
	C148.597244,194.084335 164.145233,189.891373 180.003159,185.325577 
	C178.415771,168.163864 176.829803,151.017654 175.250092,133.939072 
	C173.319702,133.622864 172.019226,133.339783 170.703644,133.210724 
	C168.715332,133.015656 166.717987,132.898315 164.721924,132.799118 
	C136.244431,131.383652 110.002861,139.241028 85.445267,152.881516 
	C56.115631,169.172607 29.741962,188.825699 14.844075,220.333008 
	C13.717457,222.715652 12.770546,225.200836 11.947446,227.706467 
	C7.796160,240.343872 7.286764,253.436172 6.913136,266.592285 
	C6.491013,281.456024 9.536310,295.420624 16.328981,308.622223 
	C19.953239,315.666016 23.513407,322.744537 26.978399,329.867737 
	C28.576395,333.152832 29.876745,336.582703 31.311855,340.746063 
M1242.511841,390.111145 
	C1239.699463,391.115723 1236.957153,392.442139 1234.063232,393.072937 
	C1214.650513,397.304474 1197.525635,391.304352 1181.701904,380.631592 
	C1167.458618,371.024780 1160.191406,357.435913 1159.989258,340.146454 
	C1159.836060,327.040771 1163.727417,314.780487 1168.415405,302.866364 
	C1183.955078,263.372253 1199.874146,224.027283 1215.649658,184.625961 
	C1221.812988,169.232300 1227.982178,153.840973 1234.239624,138.221436 
	C1212.579590,129.582489 1191.308105,121.098518 1169.858398,112.543472 
	C1169.085693,114.367104 1168.497681,115.718277 1167.937988,117.081062 
	C1146.319458,169.725708 1124.878052,222.444290 1102.942383,274.956421 
	C1098.478271,285.643219 1092.884644,296.034363 1086.509766,305.703369 
	C1078.019531,318.580811 1065.464844,325.221558 1049.697144,325.002930 
	C1035.257935,324.802765 1022.292847,319.779205 1010.260193,312.346069 
	C994.865051,302.835724 987.238098,288.793854 987.523376,270.607819 
	C987.759888,255.535049 992.204102,241.389038 997.698730,227.609665 
	C1016.191772,181.232727 1034.975220,134.971603 1053.536865,88.621880 
	C1056.168335,82.051285 1058.186890,75.235306 1060.601685,68.205223 
	C1038.922363,59.524101 1018.050659,51.166336 997.104065,42.778614 
	C996.295166,44.624313 995.731812,45.825153 995.235901,47.053215 
	C976.174438,94.256523 957.243530,141.513062 938.008667,188.645554 
	C928.929260,210.893570 920.221008,233.173492 918.406799,257.461853 
	C915.612732,294.866638 927.437073,326.165375 956.797852,350.325043 
	C979.935852,369.364258 1007.761597,377.930237 1035.762329,386.170197 
	C1036.852051,386.490906 1038.072266,386.510254 1039.222656,386.460876 
	C1057.245850,385.686829 1075.489380,387.961426 1093.187744,382.306519 
	C1094.947388,381.744293 1098.157227,382.946747 1099.526001,384.417267 
	C1105.301270,390.622192 1110.627441,397.244598 1116.130859,403.703339 
	C1120.118896,408.383820 1123.471069,413.918945 1128.268677,417.528870 
	C1137.100952,424.174591 1145.226074,431.904755 1155.821045,436.156189 
	C1167.080322,440.674164 1177.742554,446.824280 1189.203857,450.647705 
	C1198.197754,453.647949 1207.968506,454.542480 1217.475342,455.712494 
	C1225.170776,456.659607 1233.106079,457.654053 1240.721802,456.777100 
	C1251.522461,455.533417 1262.388306,453.410370 1272.736572,450.122253 
	C1281.568359,447.315979 1290.065918,442.937836 1295.877563,434.903961 
	C1299.192017,430.322205 1302.720581,425.873810 1306.418213,421.594696 
	C1324.647583,400.498596 1339.111572,377.224884 1349.325317,351.159668 
	C1361.102661,321.104004 1373.768311,291.397400 1385.909790,261.483063 
	C1393.097778,243.773193 1400.018066,225.954788 1407.236572,207.736588 
	C1385.521240,199.100006 1364.114746,190.586288 1342.535645,182.003906 
	C1341.640991,184.018539 1340.854858,185.658249 1340.174561,187.340805 
	C1330.504883,211.255463 1320.961548,235.221832 1311.164795,259.084198 
	C1296.944336,293.721466 1282.718750,328.358826 1268.123169,362.838562 
	C1263.134766,374.622437 1254.815308,383.881592 1242.511841,390.111145 
M555.621643,97.134895 
	C537.270386,129.282303 531.434387,163.655975 536.871094,200.182480 
	C546.715454,266.322449 591.130737,311.212555 651.931091,326.551208 
	C698.455627,338.288361 743.684509,332.831390 785.597046,308.559479 
	C825.030090,285.723511 847.780884,250.428955 856.385986,206.356903 
	C860.945435,183.004898 859.435059,159.206360 853.826416,135.931381 
	C844.005066,95.174599 821.387634,63.663620 784.800598,42.869915 
	C748.928894,22.482754 710.271973,16.035028 669.584351,22.092142 
	C620.349670,29.421665 581.603027,53.001499 555.621643,97.134895 
M406.569153,361.999207 
	C450.191254,351.021942 493.813354,340.044708 537.735779,328.991882 
	C532.738647,310.222351 527.901489,292.053802 522.966858,273.518829 
	C474.818939,285.421417 427.231262,297.185516 379.652252,308.947479 
	C359.357971,230.019333 341.583191,150.910446 320.111938,72.631828 
	C297.045319,78.265419 275.040009,83.639809 252.989288,89.025291 
	C277.492279,187.107422 301.847198,284.596741 326.254211,382.294678 
	C353.049805,375.497131 379.400604,368.812408 406.569153,361.999207 
z"/>
<path fill="#0A0A9C" opacity="1.000000" stroke="none" 
	d="
M1242.862305,389.974121 
	C1254.815308,383.881592 1263.134766,374.622437 1268.123169,362.838562 
	C1282.718750,328.358826 1296.944336,293.721466 1311.164795,259.084198 
	C1320.961548,235.221832 1330.504883,211.255463 1340.174561,187.340805 
	C1340.854858,185.658249 1341.640991,184.018539 1342.535645,182.003906 
	C1364.114746,190.586288 1385.521240,199.100006 1407.236572,207.736588 
	C1400.018066,225.954788 1393.097778,243.773193 1385.909790,261.483063 
	C1373.768311,291.397400 1361.102661,321.104004 1349.325317,351.159668 
	C1339.111572,377.224884 1324.647583,400.498596 1306.418213,421.594696 
	C1302.720581,425.873810 1299.192017,430.322205 1295.877563,434.903961 
	C1290.065918,442.937836 1281.568359,447.315979 1272.736572,450.122253 
	C1262.388306,453.410370 1251.522461,455.533417 1240.721802,456.777100 
	C1233.106079,457.654053 1225.170776,456.659607 1217.475342,455.712494 
	C1207.968506,454.542480 1198.197754,453.647949 1189.203857,450.647705 
	C1177.742554,446.824280 1167.080322,440.674164 1155.821045,436.156189 
	C1145.226074,431.904755 1137.100952,424.174591 1128.268677,417.528870 
	C1123.471069,413.918945 1120.118896,408.383820 1116.130859,403.703339 
	C1110.627441,397.244598 1105.301270,390.622192 1099.526001,384.417267 
	C1098.157227,382.946747 1094.947388,381.744293 1093.187744,382.306519 
	C1075.489380,387.961426 1057.245850,385.686829 1039.222656,386.460876 
	C1038.072266,386.510254 1036.852051,386.490906 1035.762329,386.170197 
	C1007.761597,377.930237 979.935852,369.364258 956.797852,350.325043 
	C927.437073,326.165375 915.612732,294.866638 918.406799,257.461853 
	C920.221008,233.173492 928.929260,210.893570 938.008667,188.645554 
	C957.243530,141.513062 976.174438,94.256523 995.235901,47.053215 
	C995.731812,45.825153 996.295166,44.624313 997.104065,42.778614 
	C1018.050659,51.166336 1038.922363,59.524101 1060.601685,68.205223 
	C1058.186890,75.235306 1056.168335,82.051285 1053.536865,88.621880 
	C1034.975220,134.971603 1016.191772,181.232727 997.698730,227.609665 
	C992.204102,241.389038 987.759888,255.535049 987.523376,270.607819 
	C987.238098,288.793854 994.865051,302.835724 1010.260193,312.346069 
	C1022.292847,319.779205 1035.257935,324.802765 1049.697144,325.002930 
	C1065.464844,325.221558 1078.019531,318.580811 1086.509766,305.703369 
	C1092.884644,296.034363 1098.478271,285.643219 1102.942383,274.956421 
	C1124.878052,222.444290 1146.319458,169.725708 1167.937988,117.081062 
	C1168.497681,115.718277 1169.085693,114.367104 1169.858398,112.543472 
	C1191.308105,121.098518 1212.579590,129.582489 1234.239624,138.221436 
	C1227.982178,153.840973 1221.812988,169.232300 1215.649658,184.625961 
	C1199.874146,224.027283 1183.955078,263.372253 1168.415405,302.866364 
	C1163.727417,314.780487 1159.836060,327.040771 1159.989258,340.146454 
	C1160.191406,357.435913 1167.458618,371.024780 1181.701904,380.631592 
	C1197.525635,391.304352 1214.650513,397.304474 1234.063232,393.072937 
	C1236.957153,392.442139 1239.699463,391.115723 1242.862305,389.974121 
z"/>
<path fill="#09099B" opacity="1.000000" stroke="none" 
	d="
M555.799011,96.815186 
	C581.603027,53.001499 620.349670,29.421665 669.584351,22.092142 
	C710.271973,16.035028 748.928894,22.482754 784.800598,42.869915 
	C821.387634,63.663620 844.005066,95.174599 853.826416,135.931381 
	C859.435059,159.206360 860.945435,183.004898 856.385986,206.356903 
	C847.780884,250.428955 825.030090,285.723511 785.597046,308.559479 
	C743.684509,332.831390 698.455627,338.288361 651.931091,326.551208 
	C591.130737,311.212555 546.715454,266.322449 536.871094,200.182480 
	C531.434387,163.655975 537.270386,129.282303 555.799011,96.815186 
M639.926331,99.390343 
	C635.431580,103.823212 630.377136,107.820953 626.535645,112.761765 
	C606.369019,138.699692 601.116455,168.171051 607.543884,199.861221 
	C611.953125,221.601181 622.676636,239.942841 640.666321,253.270782 
	C661.775146,268.909637 685.585144,274.944397 711.674438,271.030243 
	C737.724670,267.121979 758.394836,254.376709 772.837769,232.272552 
	C788.118103,208.886688 792.207275,183.002670 787.540283,155.843140 
	C783.926758,134.814484 774.344727,116.607552 758.265747,102.199715 
	C724.968994,72.363541 672.998840,74.907890 639.926331,99.390343 
z"/>
<path fill="#0A0A9C" opacity="1.000000" stroke="none" 
	d="
M31.312057,339.946930 
	C29.876745,336.582703 28.576395,333.152832 26.978399,329.867737 
	C23.513407,322.744537 19.953239,315.666016 16.328981,308.622223 
	C9.536310,295.420624 6.491013,281.456024 6.913136,266.592285 
	C7.286764,253.436172 7.796160,240.343872 11.947446,227.706467 
	C12.770546,225.200836 13.717457,222.715652 14.844075,220.333008 
	C29.741962,188.825699 56.115631,169.172607 85.445267,152.881516 
	C110.002861,139.241028 136.244431,131.383652 164.721924,132.799118 
	C166.717987,132.898315 168.715332,133.015656 170.703644,133.210724 
	C172.019226,133.339783 173.319702,133.622864 175.250092,133.939072 
	C176.829803,151.017654 178.415771,168.163864 180.003159,185.325577 
	C164.145233,189.891373 148.597244,194.084335 133.235107,198.873474 
	C118.851517,203.357544 105.105431,209.477875 93.711189,219.601105 
	C74.394257,236.763306 69.710793,258.351685 79.932663,282.503723 
	C83.285065,290.424683 87.438087,298.006775 91.475197,306.255035 
	C110.036156,297.006256 127.845200,288.121307 145.664078,279.256165 
	C163.533783,270.365753 181.413315,261.495056 199.967361,252.278503 
	C208.309570,269.338287 216.599182,286.290527 225.004913,303.480255 
	C189.035706,321.685883 153.299240,339.773712 117.274757,358.007324 
	C133.491592,390.561340 149.485107,422.667084 165.709061,455.235382 
	C144.833221,465.776947 124.251984,476.169739 103.272522,486.763641 
	C98.360580,476.568085 93.419617,466.598022 88.724762,456.513428 
	C74.935799,426.894531 61.130123,397.292328 45.042583,368.812103 
	C42.197105,363.774689 40.299995,358.201569 37.982349,352.123779 
	C35.770523,347.563477 33.541290,343.755219 31.312057,339.946930 
z"/>
<path fill="#0A0A9C" opacity="1.000000" stroke="none" 
	d="
M406.160278,362.063446 
	C379.400604,368.812408 353.049805,375.497131 326.254211,382.294678 
	C301.847198,284.596741 277.492279,187.107422 252.989288,89.025291 
	C275.040009,83.639809 297.045319,78.265419 320.111938,72.631828 
	C341.583191,150.910446 359.357971,230.019333 379.652252,308.947479 
	C427.231262,297.185516 474.818939,285.421417 522.966858,273.518829 
	C527.901489,292.053802 532.738647,310.222351 537.735779,328.991882 
	C493.813354,340.044708 450.191254,351.021942 406.160278,362.063446 
z"/>
<path fill="#4D4CAC" opacity="1.000000" stroke="none" 
	d="
M31.311956,340.346497 
	C33.541290,343.755219 35.770523,347.563477 37.961018,351.739624 
	C32.698086,350.077881 31.628515,345.631012 31.311956,340.346497 
z"/>
<path fill="#F8F8FC" opacity="1.000000" stroke="none" 
	d="
M640.220093,99.184189 
	C672.998840,74.907890 724.968994,72.363541 758.265747,102.199715 
	C774.344727,116.607552 783.926758,134.814484 787.540283,155.843140 
	C792.207275,183.002670 788.118103,208.886688 772.837769,232.272552 
	C758.394836,254.376709 737.724670,267.121979 711.674438,271.030243 
	C685.585144,274.944397 661.775146,268.909637 640.666321,253.270782 
	C622.676636,239.942841 611.953125,221.601181 607.543884,199.861221 
	C601.116455,168.171051 606.369019,138.699692 626.535645,112.761765 
	C630.377136,107.820953 635.431580,103.823212 640.220093,99.184189 
z"/>
</svg>