<svg width="240" height="97" viewBox="0 0 240 97" fill="none" xmlns="http://www.w3.org/2000/svg">
<path d="M192.598 34.2092C192.634 33.5444 192.67 32.8797 192.725 31.8653C192.701 31.3024 192.659 31.0891 192.617 30.8759C192.646 22.7597 192.675 14.6435 192.724 6.13636C192.701 5.388 192.657 5.03059 192.614 4.67318C192.689 3.58252 192.764 2.49184 192.844 1.31946C197.052 1.31946 201.145 1.31946 205.384 1.31946C205.384 11.8483 205.374 22.2412 205.395 32.6342C205.398 34.0578 205.369 35.5191 205.661 36.8982C207.036 43.3918 210.923 46.1614 217.704 45.6162C223.239 45.1712 226.726 41.2653 226.831 34.7965C226.999 24.5577 226.906 14.3147 226.922 4.07341C226.924 3.20651 226.922 2.3396 226.922 1.32879C231.142 1.32879 235.221 1.32879 239.386 1.32879C239.441 1.70547 239.524 2.00511 239.523 2.30447C239.483 13.6553 239.626 25.0111 239.335 36.3557C239.047 47.534 231.822 54.9733 220.693 56.1885C214.663 56.847 208.785 56.4854 203.336 53.5177C201.818 52.6909 200.454 51.5801 199 50.5856C191.24 56.9995 182.368 57.6741 172.997 55.2068C166.537 53.5059 162.288 49.2894 159.892 42.7429C159.572 41.5838 159.329 40.7528 159.087 39.9218C159.029 39.3873 158.971 38.8528 158.881 37.9509C158.85 25.497 158.85 13.4105 158.85 1.36891C163.032 1.36891 166.966 1.36891 171.114 1.36891C171.114 2.26919 171.114 3.04233 171.114 3.81546C171.115 13.6438 170.99 23.4748 171.201 33.2986C171.256 35.8695 172.354 38.4181 172.973 40.9769C172.973 40.9769 173.058 40.8816 173.024 41.0766C173.291 41.6599 173.592 42.0482 173.892 42.4365C173.892 42.4365 174.027 42.3086 174.004 42.5283C177.722 46.1125 182.997 46.7417 187.495 44.3598C187.495 44.3598 187.43 44.2826 187.598 44.321C187.97 44.1663 188.174 43.9731 188.378 43.78C188.378 43.78 188.34 43.749 188.498 43.7551C189.121 43.2721 189.584 42.7829 190.048 42.2937C190.048 42.2937 190.231 42.1616 190.396 41.9784C190.775 41.3352 190.989 40.8752 191.203 40.4153C191.203 40.4153 191.181 40.4044 191.329 40.306C191.851 38.2081 192.224 36.2087 192.598 34.2092Z" fill="#4D4DFF"/>
<path d="M143.492 46.0768C132.508 59.2703 111.381 59.3043 100.142 49.7008C91.1144 41.9868 88.4976 31.9875 91.3531 20.8785C94.3107 9.37236 102.562 2.81028 114.053 0.828723C125.28 -1.10721 135.449 1.49751 143.179 10.3981C151.848 20.3788 151.887 35.0849 143.492 46.0768ZM136.828 26.5269C136.335 22.3024 134.93 18.4525 131.686 15.5758C126.243 10.7476 119.945 9.69731 113.284 12.4112C106.441 15.1999 103.327 20.7988 103.17 27.9942C103.03 34.3471 105.266 39.779 110.894 43.1436C116.721 46.6274 122.895 46.7294 128.794 43.3312C135.026 39.7406 137.119 33.8707 136.828 26.5269Z" fill="#4D4DFF"/>
<path d="M0.155339 55.529C0.142635 43.47 -0.192109 31.3998 0.228472 19.3559C0.517283 11.0854 5.11575 5.13589 12.9516 2.30868C21.7231 -0.856094 30.5402 -0.547921 39.1425 3.26331C39.5038 3.42341 39.8517 3.61911 40.1889 3.82575C40.3147 3.9028 40.3921 4.05876 40.6595 4.3812C39.4347 7.4649 38.1645 10.6633 36.8285 14.027C32.0262 11.4126 27.1518 10.4555 21.9675 11.3615C15.6577 12.4643 12.6204 16.0191 12.512 22.4587C12.4961 23.4008 12.5098 24.3435 12.5098 25.5798C19.9776 25.5798 27.3025 25.5798 34.7608 25.5798C34.7608 29.0919 34.7608 32.3115 34.7608 35.8075C27.4231 35.8075 20.0869 35.8075 12.4806 35.8075C12.4806 42.4056 12.4806 48.7321 12.2417 55.2734C8.05369 55.5017 4.10452 55.5154 0.155339 55.529Z" fill="#4D4DFF"/>
<path d="M47.8864 55.3305C47.8864 55.3305 47.92 55.2301 47.9088 54.9811C47.8881 36.9489 47.8788 19.1658 47.8694 1.38269C52.0527 1.38269 56.2361 1.38269 60.6119 1.38269C60.6119 8.64995 60.6119 15.8649 60.6119 23.0799C60.6119 30.3033 60.6119 37.5266 60.6119 45.0618C69.6275 45.0618 78.5418 45.0618 87.7371 45.0618C87.7371 48.5944 87.7371 51.8218 87.5051 55.2722C76.4326 55.5024 65.592 55.5205 54.7515 55.5083C52.463 55.5058 50.1747 55.3927 47.8864 55.3305Z" fill="#4D4DFF"/>
<path d="M121.001 91.4298C120.153 90.3628 119.423 90.092 118.273 90.8246C115.917 92.3255 113.17 92.5159 110.729 91.539C109.163 90.9127 107.597 89.3571 106.865 87.8206C105.978 85.9599 107.169 84.1702 108.782 82.8864C109.274 82.4947 109.756 82.09 110.236 81.6966C108.25 77.8597 108.448 75.7318 110.908 74.2321C113.423 72.6985 117.546 73.2429 118.96 75.2955C120.367 77.3384 119.607 79.5291 116.358 82.3102C117.284 83.1219 118.178 83.9058 119.264 84.858C119.682 83.9061 119.984 83.2158 120.363 82.3502C121.408 82.7032 122.353 83.0222 123.577 83.436C123.146 84.5635 122.507 85.547 122.46 86.558C122.418 87.4716 123.023 88.4152 123.561 89.9845C123.05 90.3137 122.089 90.9318 121.001 91.4298ZM111.163 85.1094C111.267 86.0951 110.999 87.5209 111.546 87.9836C113.161 89.3504 115.023 88.9717 117.616 87.3316C116.525 86.6516 115.675 86.201 114.918 85.628C114.176 85.0662 113.527 84.3799 112.831 83.7423C112.263 84.1685 111.821 84.5005 111.163 85.1094ZM113.278 79.3771C114.145 79.0706 115.09 78.8815 115.827 78.3833C116.037 78.2407 115.838 76.8564 115.481 76.6544C114.912 76.3332 113.569 76.2643 113.412 76.5542C113.029 77.2609 113.138 78.2346 113.278 79.3771Z" fill="#4D4DFF"/>
<path d="M137.653 96.5253C136.398 96.5253 135.142 96.5253 133.701 96.5253C133.701 90.3843 133.701 84.2669 133.701 77.7013C134.683 77.7013 135.741 77.7013 137.024 77.8293C137.386 78.9382 137.743 79.1913 138.441 78.3179C138.441 78.3179 138.495 78.3076 138.689 78.2378C141.805 77.0065 144.395 77.719 146.785 79.5648C146.785 79.5648 146.873 79.4833 146.882 79.677C147.466 80.9636 148.04 82.0565 148.614 83.1495C148.614 83.1495 148.58 83.2526 148.603 83.4816C148.791 86.3724 148.144 88.7269 145.965 90.4491C143.409 92.4689 140.644 92.1986 137.653 90.8276C137.653 92.9114 137.653 94.7183 137.653 96.5253ZM137.605 85.2598C137.755 87.0901 138.818 88.4095 140.536 88.4156C141.664 88.4196 143.416 87.6262 143.779 86.7369C144.292 85.4801 144.201 83.5789 143.561 82.3868C143.122 81.5698 141.258 81.0487 140.123 81.1806C138.2 81.404 137.563 83.0585 137.605 85.2598Z" fill="#4D4DFF"/>
<path d="M217.396 93.301C217.396 93.301 217.284 93.3814 217.164 93.5279C216.977 93.858 216.911 94.0414 216.845 94.2248C216.845 94.2248 216.882 94.223 216.747 94.2665C216.392 94.6067 216.171 94.9034 215.95 95.2001C215.95 95.2001 215.957 95.2025 215.83 95.2189C215.611 95.3739 215.52 95.5126 215.428 95.6513C215.428 95.6513 215.462 95.6615 215.333 95.6658C215.094 95.7936 214.984 95.917 214.874 96.0404C214.874 96.0404 214.921 96.0528 214.762 96.0521C214.333 96.2046 214.064 96.3579 213.795 96.5112C213.632 96.523 213.469 96.5348 212.979 96.5961C209.544 97.0526 206.555 96.9257 203.914 94.9235C204.331 93.9339 204.664 93.1419 204.997 92.3499C204.997 92.3499 205.004 92.3449 205.188 92.3074C207.184 92.6687 208.987 93.3236 210.813 93.3981C212.867 93.482 213.882 92.1989 213.635 89.899C210.467 91.5003 207.596 91.3755 204.98 89.059C204.98 89.059 204.988 89.0249 204.931 88.8431C203.261 85.0838 203.751 81.3684 204.152 77.6587C204.152 77.6587 204.102 77.6382 204.285 77.697C205.546 77.7558 206.623 77.7558 207.928 77.7558C207.928 79.8374 207.793 81.6409 207.975 83.412C208.095 84.5744 208.671 85.6899 209.042 86.8264C209.042 86.8264 209.066 86.8496 209.185 86.9929C212.191 87.932 213.672 86.9844 213.795 84.141C213.883 82.1027 213.812 80.0574 213.812 77.9543C215.319 77.9543 216.533 77.9543 218.152 77.9543C217.893 83.205 217.645 88.253 217.396 93.301Z" fill="#4D4DFF"/>
<path d="M165.286 81.4204C165.252 82.0651 165.217 82.7097 165.166 83.7569C165.15 86.6317 165.15 89.1041 165.15 91.9199C163.568 91.6836 162.38 91.5061 161.205 91.1688C158.112 91.9722 155.032 92.5459 152.136 90.3961C152.136 90.3961 152.12 90.4287 152.102 90.2701C151.645 89.5519 151.205 88.9922 150.765 88.4327C150.765 88.4327 150.749 88.4788 150.765 88.3348C150.653 87.9345 150.526 87.6783 150.399 87.422C150.399 87.422 150.344 87.3848 150.371 87.1903C150.331 85.6023 150.266 84.2087 150.2 82.8151C150.262 82.6669 150.324 82.5188 150.487 82.1328C151.002 81.1499 151.415 80.4049 151.829 79.6599C151.829 79.6599 151.664 79.5042 151.861 79.5421C152.2 79.4896 152.277 79.3606 152.289 79.1932C152.289 79.1932 152.172 79.0422 152.383 79.0702C152.99 78.7885 153.386 78.479 153.781 78.1694C153.781 78.1694 153.925 78.1726 154.16 78.1103C156.172 78.0362 157.95 78.0243 159.775 78.0786C159.823 78.1449 159.987 78.1447 160.068 78.2726C160.398 78.5662 160.648 78.7318 160.996 78.9625C161.06 78.6011 161.111 78.3179 161.364 77.9323C162.707 77.8298 163.847 77.8298 164.97 77.8298C165.094 79.2435 165.19 80.3319 165.286 81.4204ZM159.718 87.8727C160.188 87.0788 160.88 86.338 161.086 85.4806C161.61 83.2923 160.087 81.1558 158.043 80.9451C156.076 80.7425 154.347 82.4406 154.284 84.6362C154.201 87.5737 156.404 89.0531 159.718 87.8727Z" fill="#4D4DFF"/>
<path d="M44.9224 90.1504C44.3435 90.4487 43.7823 90.5236 43.3206 90.7785C39.6911 92.7826 35.5202 92.0491 33.0037 89.0896C31.2855 87.069 30.876 81.7286 34.0276 79.2152C37.9006 77.0111 41.5662 76.7919 45.1855 80.0924C47.0906 82.7268 46.9578 85.3126 46.2132 87.9661C45.8042 88.6475 45.3952 89.329 44.9224 90.1504ZM41.9745 87.1316C42.1744 86.4614 42.4845 85.8022 42.5529 85.1188C42.7348 83.3 42.1918 81.5665 40.2823 81.2631C39.1096 81.0768 37.4115 81.5721 36.5901 82.3985C35.2657 83.7308 35.4344 85.6178 36.5597 87.1912C37.7618 88.8719 39.5165 88.9106 41.9745 87.1316Z" fill="#4D4DFF"/>
<path d="M80.9655 81.2045C80.9655 81.2045 80.958 81.3349 81.0246 81.5483C81.2448 82.7328 81.3984 83.7039 81.552 84.6749C81.552 84.6749 81.5995 84.7164 81.3845 84.7091C78.0082 85.3382 74.8468 85.9747 71.3723 86.6741C73.051 88.7164 74.9208 89.1515 76.8466 88.1988C78.228 87.5154 79.1302 87.6694 80.0729 88.7027C80.113 88.7809 80.1532 88.8591 80.2959 89.0793C80.4217 89.3418 80.4943 89.3951 80.6164 89.3812C80.6006 89.4749 80.5848 89.5687 80.3984 89.8643C77.0622 92.6433 73.6804 92.2181 70.2262 90.7867C70.1701 90.6352 70.066 90.5322 69.7446 90.3293C69.2867 89.9614 68.998 89.742 68.7093 89.5226C68.7093 89.5226 68.7304 89.4885 68.6752 89.3638C68.3649 88.975 68.1099 88.711 67.8548 88.4469C67.8548 88.4469 67.8351 88.484 67.8456 88.3382C67.7021 87.9584 67.5481 87.7244 67.394 87.4903C67.394 87.4903 67.33 87.5427 67.3731 87.3626C67.2379 86.6805 67.0595 86.1785 66.8811 85.6765C66.902 85.4644 66.923 85.2523 66.9681 84.7129C67.7897 82.6592 68.5871 80.9328 69.3844 79.2064C69.3844 79.2064 69.412 79.1887 69.5669 79.1401C70.1164 78.7941 70.5109 78.4965 70.9054 78.199C70.9054 78.199 71.0541 78.1998 71.2918 78.1392C74.6 77.1495 77.4032 77.6276 79.9091 79.6708C79.9091 79.6708 79.9286 79.7032 79.9909 79.8581C80.3572 80.4101 80.6613 80.8073 80.9655 81.2045ZM77.3918 82.6853C76.7455 80.8269 75.2883 80.4348 73.6165 80.8206C72.0312 81.1865 71.1097 82.2461 71.1467 84.2428C73.2714 83.8164 75.2427 83.4208 77.3918 82.6853Z" fill="#4D4DFF"/>
<path d="M96.2257 90.3732C96.0907 90.375 95.9764 90.4246 95.6933 90.6379C95.2831 90.9308 95.0625 91.108 94.842 91.2851C94.842 91.2851 94.9424 91.3531 94.7335 91.3281C94.1346 91.4693 93.7446 91.6355 93.1477 91.7931C90.7699 91.464 88.5991 91.1436 86.4282 90.8231C86.4282 90.8231 86.4007 90.8904 86.34 90.7329C85.5266 89.876 84.7738 89.1766 84.0211 88.4772C84.0211 88.4772 83.9914 88.5108 83.9866 88.3076C81.855 82.0042 85.2853 77.1674 91.4084 77.6629C92.2605 77.7318 93.0998 77.9586 93.945 78.1124C93.945 78.1124 93.9611 78.0611 94.0232 78.2099C94.6929 78.7212 95.3004 79.0836 95.908 79.446C95.908 79.446 95.8934 79.4733 95.9589 79.625C96.6258 81.2645 97.2272 82.7523 97.8286 84.2401C96.6725 84.7141 95.5165 85.1882 94.0445 85.5753C91.7518 85.8522 89.775 86.2161 87.4224 86.6492C89.2232 88.7082 91.0177 88.9928 93.1293 88.2381C93.8271 87.9886 94.582 87.8987 95.3107 87.7358C95.3107 87.7358 95.3212 87.6862 95.3213 87.8143C95.4546 88.036 95.5879 88.1296 95.7211 88.2232C95.7211 88.2232 95.8822 88.0518 95.828 88.2542C95.906 88.5403 96.0382 88.6241 96.1703 88.7079C96.1703 88.7079 96.337 88.5511 96.3245 88.7998C96.2832 89.4901 96.2545 89.9316 96.2257 90.3732ZM89.4414 80.8783C88.1468 81.563 87.1184 82.3975 87.4527 84.2151C89.617 83.7825 91.5861 83.3889 93.702 82.9659C92.8664 80.9452 91.515 80.508 89.4414 80.8783Z" fill="#4D4DFF"/>
<path d="M175.896 83.334C177.038 83.9257 178.18 84.5174 179.492 85.3993C179.797 86.4927 179.932 87.2959 180.066 88.0991C179.992 88.2958 179.918 88.4925 179.713 88.9591C176.888 92.4857 171.062 92.9256 167.651 90.0406C168.052 89.2462 168.466 88.4291 168.7 87.9647C170.899 88.2429 172.742 88.5533 174.597 88.6555C175.049 88.6804 175.539 88.0219 176.011 87.6776C175.589 87.299 175.226 86.7508 174.733 86.5802C173.925 86.3011 173.03 86.2785 172.175 86.1287C168.364 85.4612 167.283 83.7341 168.295 79.9426C168.295 79.9426 168.304 79.9555 168.448 79.8654C171.01 77.6001 175.622 76.8533 178.355 78.323C178.81 78.5679 178.95 79.3999 179.235 79.9606C179.235 79.9606 179.126 80.0312 178.999 80.222C178.205 80.6504 177.543 81.0647 176.868 81.0885C175.477 81.1376 174.077 80.9166 172.684 80.9523C172.378 80.9601 171.873 81.5636 171.854 81.9143C171.836 82.2358 172.301 82.8043 172.641 82.8835C173.704 83.1306 174.808 83.1974 175.896 83.334Z" fill="#4D4DFF"/>
<path d="M59.228 91.8441C59.228 91.8441 59.1225 91.7243 59.0062 91.5288C58.8703 86.7337 58.6692 82.1236 58.9316 77.54C59.0206 75.985 60.2794 74.4969 61.0037 72.9783C61.0037 72.9783 61.0813 72.9834 61.295 72.9267C63.2834 72.8494 65.058 72.8288 66.8882 72.987C66.7267 74.0506 66.5095 74.9356 66.3006 75.7871C63.2749 75.449 62.9726 75.6685 63.101 78.114C64.0197 78.0685 64.9417 78.0228 65.8638 77.9772C65.8638 77.9772 66.0479 78.0963 66.1595 78.3023C66.1381 79.4622 66.0051 80.4161 65.6565 81.3492C64.6796 81.3283 63.9183 81.3283 63.0283 81.3283C63.0283 84.8045 63.0283 88.0928 62.9566 91.4625C62.8848 91.544 62.865 91.7602 62.865 91.7602C62.865 91.7602 62.6708 91.752 62.392 91.7637C61.1516 91.7982 60.1898 91.8212 59.228 91.8441Z" fill="#4D4DFF"/>
<path d="M189.878 80.9196C189.753 81.0378 189.628 81.156 189.174 81.2874C188.084 81.3005 187.322 81.3005 186.384 81.3005C186.384 83.1738 186.328 84.82 186.398 86.4609C186.486 88.5304 187.129 88.8756 189.307 88.1547C189.307 88.1547 189.472 88.1787 189.608 88.3169C190.09 89.297 190.435 90.139 190.815 91.0656C188.199 92.3015 185.914 92.1212 183.677 90.7863C183.677 90.7863 183.567 90.9106 183.564 90.6882C183.211 89.764 182.574 89.068 182.559 88.3592C182.467 83.8738 182.512 79.3855 182.512 74.8437C183.728 74.7666 184.828 74.6967 185.928 74.6269C185.928 74.6269 186.111 74.7436 186.228 74.9718C186.395 76.1086 186.446 77.0172 186.498 77.9628C187.664 78.0632 188.646 78.1477 189.677 78.2364C189.751 79.2254 189.815 80.0725 189.878 80.9196Z" fill="#4D4DFF"/>
<path d="M199.762 77.6109C199.974 77.6147 200.185 77.6184 200.69 77.6261C201.187 77.648 201.392 77.6658 201.596 77.6836C201.596 77.6836 201.621 77.6202 201.605 77.8253C201.629 78.9936 201.667 79.9569 201.706 80.9202C201.706 80.9202 201.632 81.0995 201.436 81.2216C197.939 81.5591 197.097 82.416 197.038 85.7132C197.004 87.6587 197.032 89.6052 197.032 91.602C195.559 91.602 194.417 91.602 193.236 91.602C193.236 86.9458 193.236 82.4295 193.236 77.4363C194.842 77.8656 196.147 78.2142 197.847 78.6685C198.119 78.5181 198.941 78.0645 199.762 77.6109Z" fill="#4D4DFF"/>
<path d="M189.887 42.2929C189.584 42.7829 189.121 43.2721 188.508 43.7776C188.815 43.2934 189.271 42.7927 189.887 42.2929Z" fill="#4D4DFF"/>
<path d="M191.039 40.4564C190.989 40.8753 190.775 41.3352 190.426 41.8698C190.485 41.4621 190.68 40.9798 191.039 40.4564Z" fill="#4D4DFF"/>
<path d="M173.923 42.262C173.592 42.0482 173.291 41.6599 172.977 41.1204C173.294 41.3419 173.623 41.7147 173.923 42.262Z" fill="#4D4DFF"/>
<path d="M192.489 30.897C192.659 31.0891 192.701 31.3024 192.681 31.6694C192.532 31.5215 192.446 31.2197 192.489 30.897Z" fill="#4D4DFF"/>
<path d="M188.227 43.7778C188.174 43.9731 187.97 44.1663 187.619 44.3669C187.673 44.1747 187.874 43.9751 188.227 43.7778Z" fill="#4D4DFF"/>
<path d="M87.3469 56.2098C87.3755 56.1446 87.459 56.1397 87.6679 56.1314C87.6629 56.1754 87.5324 56.2227 87.3469 56.2098Z" fill="#4D4DFF"/>
<path d="M18.7116 79.4824C20.6385 78.8669 22.5236 77.9559 24.4942 77.698C26.9069 77.3823 28.9843 78.3465 30.1431 80.8138C29.0376 82.0272 27.9465 82.7722 26.204 81.6666C24.3653 80.5001 22.4863 80.928 21.4229 82.4807C20.4109 83.9585 20.6247 86.3546 21.8748 87.5448C23.2965 88.8984 25.0559 88.8731 26.7772 87.4433C27.0145 87.2462 27.151 86.9279 27.4115 86.5551C28.4408 87.3211 29.2907 87.9535 30.1444 88.5888C27.2683 92.3026 22.8771 92.9709 19.3694 90.2997C16.0491 87.7712 15.7361 83.4798 18.6616 79.6419C18.7197 79.484 18.7077 79.4765 18.7116 79.4824Z" fill="#4D4DFF"/>
<path d="M49.4311 77.7975C49.4861 77.0717 49.5411 76.5569 49.5851 75.8483C49.727 75.377 49.88 75.0995 50.1319 74.6664C50.2308 74.5108 50.2203 74.3227 50.2203 74.3227C50.3117 74.2464 50.4031 74.1702 50.5671 73.9308C52.5791 72.4704 54.6492 71.9714 57.116 72.7493C57.3056 72.76 57.3266 72.8122 57.3989 72.8955C57.5516 73.0939 57.6518 73.188 57.7717 73.2612C57.4718 74.067 57.1719 74.8728 56.8233 75.8092C55.2684 75.6961 53.2922 75.0563 53.5078 77.9601C54.5158 78.0278 55.504 78.0941 56.6756 78.1727C56.6756 79.157 56.6756 80.1131 56.6756 81.2055C55.7114 81.259 54.7867 81.3104 53.5094 81.3813C53.5094 84.4094 53.5094 87.4371 53.5438 90.6854C52.7044 91.1826 51.8305 91.4594 50.7838 91.7904C50.611 91.8446 50.3813 91.7837 50.1409 91.7451C49.6909 91.5042 49.4813 91.302 49.2717 91.0998C49.3198 89.2428 49.3678 87.3859 49.4306 85.1945C49.403 84.6796 49.3607 84.4991 49.3183 84.3186C49.3537 83.9177 49.389 83.5168 49.4368 82.7448C49.403 81.7595 49.3568 81.1453 49.3106 80.5311C49.3508 79.6902 49.3909 78.8494 49.4311 77.7975Z" fill="#4D4DFF"/>
</svg>
